<svg width="72" height="65" viewBox="0 0 72 65" fill="none" xmlns="http://www.w3.org/2000/svg">
<circle cx="36.5" cy="32.5" r="32.5" fill="white"/>
<path d="M13.231 27.707C13.242 27.7956 13.2531 27.873 13.2642 27.9395C13.2752 28.0059 13.2531 28.0667 13.1978 28.1221C13.1092 28.1221 13.0262 28.1276 12.9487 28.1387C12.8713 28.1387 12.7772 28.1276 12.6665 28.1055C12.5669 28.0833 12.4894 28.0723 12.4341 28.0723C12.3898 28.0723 12.3455 28.0723 12.3013 28.0723C12.257 28.0723 12.2183 28.0723 12.1851 28.0723C12.1629 28.0612 12.1297 28.0501 12.0854 28.0391H11.9028C11.7479 28.0169 11.5985 28.0169 11.4546 28.0391C11.3218 28.0612 11.1779 28.0833 11.0229 28.1055C11.0229 28.2161 11.0285 28.2826 11.0396 28.3047C11.0396 28.3268 11.0451 28.3379 11.0562 28.3379C11.034 28.4264 11.0229 28.4873 11.0229 28.5205C11.034 28.5537 11.0396 28.5869 11.0396 28.6201C11.0396 28.6533 11.034 28.6865 11.0229 28.7197C11.0119 28.7529 11.0119 28.7861 11.0229 28.8193C11.0229 28.8415 11.0285 28.8691 11.0396 28.9023C11.0506 28.9355 11.0617 28.9688 11.0728 29.002C11.0728 29.0684 11.0672 29.1458 11.0562 29.2344C11.0451 29.3229 11.0451 29.4115 11.0562 29.5C11.0562 29.5332 11.0617 29.5664 11.0728 29.5996C11.0838 29.6328 11.0949 29.6715 11.106 29.7158C11.117 29.749 11.117 29.7878 11.106 29.832C11.106 29.8763 11.1115 29.915 11.1226 29.9482C11.1336 30.0036 11.1447 30.0479 11.1558 30.0811C11.1779 30.1143 11.1945 30.1585 11.2056 30.2139C11.2056 30.2692 11.2056 30.3356 11.2056 30.4131C11.2166 30.4906 11.2222 30.557 11.2222 30.6123C11.2111 30.6676 11.1945 30.7285 11.1724 30.7949C11.1613 30.8503 11.1558 30.9056 11.1558 30.9609C11.1558 31.0163 11.1668 31.0661 11.189 31.1104C11.2222 31.1546 11.2443 31.2044 11.2554 31.2598C11.2775 31.3483 11.283 31.4368 11.272 31.5254C11.2609 31.6029 11.2609 31.6859 11.272 31.7744C11.272 31.8076 11.2775 31.8408 11.2886 31.874C11.3107 31.9072 11.3218 31.946 11.3218 31.9902C11.3328 32.0345 11.3328 32.0788 11.3218 32.123C11.3107 32.1562 11.3107 32.1895 11.3218 32.2227C11.3328 32.3001 11.366 32.3997 11.4214 32.5215C11.4435 32.599 11.4491 32.693 11.438 32.8037C11.4159 32.9033 11.4103 32.9753 11.4214 33.0195C11.4435 33.0638 11.4546 33.1025 11.4546 33.1357C11.4767 33.2907 11.4823 33.4512 11.4712 33.6172C11.4601 33.7721 11.4767 33.9271 11.521 34.082C11.4989 34.1152 11.4878 34.154 11.4878 34.1982C11.4878 34.2314 11.4767 34.2591 11.4546 34.2812C11.4989 34.3919 11.5265 34.4749 11.5376 34.5303C11.5376 34.5745 11.5321 34.6133 11.521 34.6465C11.5099 34.6797 11.5044 34.7184 11.5044 34.7627C11.5044 34.818 11.5099 34.8623 11.521 34.8955C11.5321 34.9287 11.5431 34.9619 11.5542 34.9951C11.5542 35.0394 11.5487 35.0781 11.5376 35.1113C11.5265 35.1445 11.521 35.1888 11.521 35.2441C11.521 35.2773 11.521 35.3161 11.521 35.3604C11.5321 35.3936 11.5376 35.4268 11.5376 35.46C11.5376 35.5485 11.5376 35.6315 11.5376 35.709C11.5487 35.7754 11.5487 35.8418 11.5376 35.9082C11.5265 35.9303 11.5099 35.958 11.4878 35.9912C11.4767 36.0244 11.4712 36.0576 11.4712 36.0908C11.4712 36.1462 11.4712 36.207 11.4712 36.2734C11.4823 36.3398 11.4878 36.4007 11.4878 36.4561C11.4657 36.5446 11.4601 36.6055 11.4712 36.6387C11.4823 36.6719 11.4878 36.6995 11.4878 36.7217C11.4767 36.7881 11.4601 36.86 11.438 36.9375C11.4269 37.015 11.4214 37.0814 11.4214 37.1367C11.4657 37.2585 11.4933 37.347 11.5044 37.4023C11.5155 37.4577 11.5321 37.513 11.5542 37.5684C11.5763 37.6348 11.5819 37.679 11.5708 37.7012C11.5708 37.7233 11.5708 37.7676 11.5708 37.834C11.5708 37.8672 11.5763 37.9059 11.5874 37.9502C11.6095 37.9945 11.5929 38.0332 11.5376 38.0664C11.5929 38.1107 11.6427 38.1605 11.687 38.2158C11.7313 38.2712 11.7368 38.3597 11.7036 38.4814C11.6815 38.5589 11.6317 38.6032 11.5542 38.6143C11.4878 38.6364 11.4325 38.6751 11.3882 38.7305C11.2 38.6862 11.0396 38.653 10.9067 38.6309C10.7739 38.6198 10.6522 38.5921 10.5415 38.5479C10.4862 38.5589 10.4419 38.57 10.4087 38.5811C10.3755 38.5921 10.3312 38.6032 10.2759 38.6143C10.2205 38.6143 10.1707 38.6143 10.1265 38.6143C10.0933 38.6143 10.0656 38.6032 10.0435 38.5811C10.0103 38.6253 9.96598 38.6475 9.91064 38.6475C9.85531 38.6475 9.78337 38.653 9.69482 38.6641C9.59521 38.6641 9.53434 38.6696 9.51221 38.6807C9.50114 38.6917 9.48454 38.7028 9.4624 38.7139C9.4292 38.7249 9.37939 38.7249 9.31299 38.7139C9.24658 38.7139 9.19124 38.7194 9.14697 38.7305C9.09163 38.7415 9.03076 38.7471 8.96436 38.7471C8.89795 38.7581 8.83708 38.7471 8.78174 38.7139C8.6932 38.6917 8.64893 38.6309 8.64893 38.5312C8.65999 38.4427 8.64339 38.3652 8.59912 38.2988C8.61019 38.2324 8.63232 38.1771 8.66553 38.1328C8.7098 38.0996 8.71533 38.0498 8.68213 37.9834C8.71533 37.9391 8.74854 37.9004 8.78174 37.8672C8.81494 37.8229 8.84261 37.7786 8.86475 37.7344C8.88688 37.679 8.89795 37.6182 8.89795 37.5518C8.89795 37.4854 8.90902 37.43 8.93115 37.3857C8.95329 37.3415 8.95882 37.3027 8.94775 37.2695C8.93669 37.2363 8.93115 37.1921 8.93115 37.1367C8.93115 37.0592 8.93669 36.9873 8.94775 36.9209C8.95882 36.8434 8.94222 36.766 8.89795 36.6885C8.93115 36.6221 8.94775 36.5557 8.94775 36.4893C8.94775 36.4118 8.94775 36.3454 8.94775 36.29C8.96989 36.2015 8.96989 36.1351 8.94775 36.0908C8.93669 36.0465 8.93115 36.0078 8.93115 35.9746C8.93115 35.9193 8.94222 35.8695 8.96436 35.8252C8.98649 35.7699 8.99756 35.7145 8.99756 35.6592C8.96436 35.5374 8.95329 35.4489 8.96436 35.3936C8.97542 35.3271 8.98096 35.2773 8.98096 35.2441C8.98096 35.1445 8.96436 35.0615 8.93115 34.9951C8.93115 34.8623 8.93115 34.7572 8.93115 34.6797C8.94222 34.5911 8.94775 34.5026 8.94775 34.4141C8.93669 34.3145 8.93115 34.2038 8.93115 34.082C8.93115 33.9492 8.92008 33.833 8.89795 33.7334C8.86475 33.501 8.86475 33.2962 8.89795 33.1191C8.93115 32.9421 8.90348 32.7871 8.81494 32.6543C8.85921 32.4993 8.86475 32.3223 8.83154 32.123C8.79834 31.9238 8.80387 31.7578 8.84814 31.625C8.85921 31.5586 8.84261 31.5254 8.79834 31.5254C8.75407 31.5143 8.73747 31.4811 8.74854 31.4258C8.74854 31.3372 8.74854 31.2487 8.74854 31.1602C8.74854 31.0605 8.73747 30.972 8.71533 30.8945C8.65999 30.7949 8.63786 30.6455 8.64893 30.4463C8.67106 30.236 8.68766 30.0589 8.69873 29.915C8.6766 29.8597 8.65446 29.821 8.63232 29.7988C8.62126 29.7656 8.61019 29.7214 8.59912 29.666C8.57699 29.5775 8.57699 29.4889 8.59912 29.4004C8.63232 29.3118 8.65446 29.2178 8.66553 29.1182C8.6766 29.0407 8.6766 28.9688 8.66553 28.9023C8.66553 28.8249 8.67106 28.7585 8.68213 28.7031C8.6932 28.6146 8.68766 28.5094 8.66553 28.3877C8.64339 28.266 8.63232 28.1553 8.63232 28.0557C8.49951 28.0667 8.3667 28.0833 8.23389 28.1055C8.10107 28.1165 7.96273 28.1276 7.81885 28.1387C7.71924 28.1276 7.60856 28.1276 7.48682 28.1387C7.37614 28.1497 7.28206 28.1608 7.20459 28.1719C7.04964 28.2161 6.92236 28.2383 6.82275 28.2383C6.72314 28.2272 6.62907 28.2272 6.54053 28.2383C6.40771 28.2604 6.26937 28.2936 6.12549 28.3379C5.99268 28.3711 5.8488 28.3711 5.69385 28.3379C5.63851 28.2493 5.61637 28.1553 5.62744 28.0557C5.63851 27.945 5.63851 27.8564 5.62744 27.79C5.61637 27.7347 5.61084 27.6904 5.61084 27.6572C5.61084 27.613 5.61084 27.5576 5.61084 27.4912C5.63298 27.4027 5.63298 27.3473 5.61084 27.3252C5.59977 27.3031 5.5887 27.2865 5.57764 27.2754C5.56657 27.2201 5.56657 27.1592 5.57764 27.0928C5.5887 27.0264 5.59424 26.9655 5.59424 26.9102C5.59424 26.8548 5.57764 26.8216 5.54443 26.8105C5.50016 26.7995 5.48356 26.7663 5.49463 26.7109C5.49463 26.6335 5.4891 26.5505 5.47803 26.4619C5.46696 26.3734 5.45589 26.2848 5.44482 26.1963C5.43376 26.0967 5.43929 26.0081 5.46143 25.9307C5.47249 25.8421 5.5057 25.7702 5.56104 25.7148C5.61637 25.6927 5.67171 25.6816 5.72705 25.6816C5.78239 25.6706 5.85433 25.6761 5.94287 25.6982C6.08675 25.7204 6.19189 25.7425 6.2583 25.7646C6.32471 25.7868 6.38558 25.8034 6.44092 25.8145C6.47412 25.8145 6.50732 25.8089 6.54053 25.7979C6.5848 25.7868 6.6346 25.7812 6.68994 25.7812C6.74528 25.7812 6.79508 25.7868 6.83936 25.7979C6.88363 25.8089 6.93343 25.8145 6.98877 25.8145C7.03304 25.8255 7.08285 25.8311 7.13818 25.8311C7.16032 25.8311 7.18245 25.8366 7.20459 25.8477C7.25993 25.8477 7.31527 25.8366 7.37061 25.8145C7.42594 25.7923 7.48128 25.7812 7.53662 25.7812C7.60303 25.7812 7.66943 25.7923 7.73584 25.8145C7.80225 25.8255 7.86865 25.8366 7.93506 25.8477C7.96826 25.8477 8.00146 25.8477 8.03467 25.8477C8.06787 25.8366 8.10661 25.8255 8.15088 25.8145C8.25049 25.8145 8.31689 25.8089 8.3501 25.7979C8.39437 25.7868 8.43311 25.7757 8.46631 25.7646C8.49951 25.7646 8.52718 25.7702 8.54932 25.7812C8.58252 25.7923 8.61572 25.7979 8.64893 25.7979C8.78174 25.7536 8.89795 25.737 8.99756 25.748C9.09717 25.7591 9.18571 25.7536 9.26318 25.7314C9.30745 25.7314 9.33512 25.7425 9.34619 25.7646C9.36833 25.7868 9.396 25.8034 9.4292 25.8145C9.49561 25.7923 9.54541 25.7812 9.57861 25.7812C9.62288 25.7702 9.66715 25.7923 9.71143 25.8477C9.7557 25.8145 9.79997 25.7868 9.84424 25.7646C9.88851 25.7425 9.94385 25.7314 10.0103 25.7314C10.0545 25.7204 10.1099 25.7314 10.1763 25.7646C10.2427 25.7868 10.3146 25.7923 10.3921 25.7812C10.4364 25.8034 10.5028 25.8089 10.5913 25.7979C10.6909 25.7868 10.7573 25.8034 10.7905 25.8477C10.8459 25.8366 10.8957 25.8311 10.9399 25.8311C10.9842 25.82 11.0285 25.8089 11.0728 25.7979C11.2166 25.7979 11.3107 25.8034 11.355 25.8145C11.3882 25.8145 11.4159 25.82 11.438 25.8311C11.4712 25.8421 11.5099 25.8532 11.5542 25.8643C11.6427 25.8864 11.7368 25.8975 11.8364 25.8975C11.936 25.8864 12.0301 25.8809 12.1187 25.8809C12.2736 25.8698 12.4285 25.8532 12.5835 25.8311C12.7495 25.7979 12.8768 25.8034 12.9653 25.8477C12.9875 25.8587 13.0207 25.8919 13.0649 25.9473C13.1203 26.0026 13.1535 26.0413 13.1646 26.0635C13.1756 26.0856 13.1812 26.1188 13.1812 26.1631C13.1812 26.2074 13.1812 26.2461 13.1812 26.2793C13.1922 26.4232 13.1867 26.5781 13.1646 26.7441C13.1535 26.9102 13.1535 27.0762 13.1646 27.2422C13.1646 27.3307 13.1701 27.4137 13.1812 27.4912C13.2033 27.5687 13.2199 27.6406 13.231 27.707ZM23.6235 38.0166C23.5903 38.083 23.5184 38.1494 23.4077 38.2158C23.3192 38.2601 23.2583 38.2933 23.2251 38.3154C23.203 38.3486 23.1808 38.3652 23.1587 38.3652C23.0369 38.3874 22.9484 38.3708 22.8931 38.3154C22.7381 38.3597 22.5942 38.3763 22.4614 38.3652C22.3397 38.3542 22.2179 38.3652 22.0962 38.3984C22.0409 38.4095 21.9966 38.4261 21.9634 38.4482C21.9302 38.4814 21.8914 38.5091 21.8472 38.5312C21.7808 38.5534 21.7199 38.5589 21.6646 38.5479C21.6203 38.5479 21.5649 38.5479 21.4985 38.5479C21.4543 38.5146 21.4155 38.4704 21.3823 38.415C21.3602 38.3708 21.3381 38.321 21.3159 38.2656C21.2274 38.1992 21.161 38.1328 21.1167 38.0664C21.0946 38.0443 21.0724 38.0166 21.0503 37.9834C21.0392 37.9391 21.0226 37.9059 21.0005 37.8838C20.923 37.7842 20.8621 37.6901 20.8179 37.6016C20.7736 37.502 20.7404 37.4189 20.7183 37.3525C20.6851 37.3083 20.6463 37.264 20.6021 37.2197C20.5688 37.1755 20.5356 37.1257 20.5024 37.0703C20.4692 37.026 20.4305 36.9818 20.3862 36.9375C20.342 36.8822 20.3088 36.8324 20.2866 36.7881C20.2645 36.7438 20.2534 36.7051 20.2534 36.6719C20.2534 36.6276 20.2424 36.5833 20.2202 36.5391C20.187 36.4727 20.1427 36.4118 20.0874 36.3564C20.0431 36.3011 20.0155 36.2292 20.0044 36.1406C19.9601 36.0964 19.9159 36.0521 19.8716 36.0078C19.8384 35.9525 19.783 35.9137 19.7056 35.8916C19.6834 35.8141 19.6447 35.7533 19.5894 35.709C19.5451 35.6536 19.5063 35.5817 19.4731 35.4932C19.451 35.46 19.4178 35.388 19.3735 35.2773C19.3514 35.2441 19.3348 35.2109 19.3237 35.1777C19.3237 35.1335 19.3127 35.0947 19.2905 35.0615C19.2573 35.0062 19.2075 34.9619 19.1411 34.9287C19.0858 34.8955 19.047 34.8346 19.0249 34.7461C18.9364 34.7461 18.8755 34.724 18.8423 34.6797C18.8201 34.6243 18.7703 34.5911 18.6929 34.5801C18.6375 34.4694 18.5656 34.3698 18.4771 34.2812C18.3996 34.1927 18.3276 34.0876 18.2612 33.9658C18.1063 33.8883 17.9679 33.7887 17.8462 33.667C17.7244 33.5452 17.5806 33.4401 17.4146 33.3516C17.3703 33.252 17.2707 33.1911 17.1157 33.1689C17.0604 33.2464 17.0382 33.3405 17.0493 33.4512C17.0604 33.5508 17.0549 33.6504 17.0327 33.75C17.0216 33.8717 16.9995 33.9935 16.9663 34.1152C16.9442 34.2259 16.9165 34.3255 16.8833 34.4141C16.8612 34.4694 16.8667 34.5081 16.8999 34.5303C16.9331 34.5413 16.9442 34.5745 16.9331 34.6299C16.922 34.6631 16.9054 34.7018 16.8833 34.7461C16.8722 34.7904 16.8722 34.8346 16.8833 34.8789C16.8833 34.9342 16.8944 34.9896 16.9165 35.0449C16.9497 35.0892 16.9663 35.1501 16.9663 35.2275C16.9774 35.305 16.9663 35.4046 16.9331 35.5264C16.911 35.6481 16.8944 35.7533 16.8833 35.8418C16.8944 35.9303 16.8944 35.9857 16.8833 36.0078C16.8833 36.0299 16.8833 36.0521 16.8833 36.0742C16.8833 36.1628 16.8833 36.2402 16.8833 36.3066C16.8833 36.373 16.8778 36.445 16.8667 36.5225C16.8778 36.6442 16.8722 36.7383 16.8501 36.8047C16.828 36.86 16.8114 36.9154 16.8003 36.9707C16.8224 37.0482 16.828 37.0924 16.8169 37.1035C16.8058 37.1146 16.8003 37.1312 16.8003 37.1533C16.8003 37.1865 16.8058 37.2197 16.8169 37.2529C16.828 37.2861 16.828 37.3138 16.8169 37.3359C16.8058 37.4577 16.7837 37.5518 16.7505 37.6182C16.7284 37.6846 16.7284 37.7786 16.7505 37.9004C16.7726 37.9779 16.7892 38.0277 16.8003 38.0498C16.8114 38.083 16.8114 38.1107 16.8003 38.1328C16.7892 38.2103 16.7505 38.2767 16.6841 38.332C16.6177 38.3874 16.5845 38.4482 16.5845 38.5146C16.4517 38.5036 16.3299 38.5146 16.2192 38.5479C16.1196 38.5811 16.02 38.57 15.9204 38.5146C15.8429 38.5368 15.7489 38.5589 15.6382 38.5811C15.5275 38.6032 15.4224 38.6087 15.3228 38.5977C15.201 38.5645 15.118 38.5534 15.0737 38.5645C15.0405 38.5755 15.0129 38.57 14.9907 38.5479C14.9686 38.3265 14.9409 38.1439 14.9077 38C14.8745 37.8561 14.9022 37.7288 14.9907 37.6182C14.9907 37.585 14.9852 37.5518 14.9741 37.5186C14.9631 37.4854 14.9631 37.4466 14.9741 37.4023C14.9852 37.2806 14.9797 37.1921 14.9575 37.1367C14.9465 37.0814 14.9409 37.0316 14.9409 36.9873C14.952 36.943 14.9631 36.9043 14.9741 36.8711C14.9963 36.8379 15.0073 36.8047 15.0073 36.7715C15.0184 36.7161 15.0129 36.6608 14.9907 36.6055C14.9686 36.5391 14.9575 36.4727 14.9575 36.4062C14.9575 36.3509 14.9631 36.29 14.9741 36.2236C14.9852 36.1572 14.9907 36.0964 14.9907 36.041C14.9907 35.9857 14.9741 35.9248 14.9409 35.8584C14.9188 35.792 14.9299 35.7256 14.9741 35.6592C14.9963 35.6149 15.0018 35.5485 14.9907 35.46C14.9907 35.3714 14.9907 35.2829 14.9907 35.1943C14.9907 35.139 14.9907 35.0892 14.9907 35.0449C15.0018 35.0007 15.0129 34.9508 15.0239 34.8955C15.0239 34.8291 15.0184 34.7682 15.0073 34.7129C15.0073 34.6465 15.0073 34.5856 15.0073 34.5303C15.0073 34.5081 15.0129 34.4805 15.0239 34.4473C15.035 34.403 15.035 34.3698 15.0239 34.3477C15.0018 34.248 14.9907 34.1706 14.9907 34.1152C15.0018 34.0599 15.0073 34.0156 15.0073 33.9824C15.0184 33.9271 15.0184 33.8717 15.0073 33.8164C15.0073 33.75 15.0129 33.6781 15.0239 33.6006C15.0239 33.5563 15.0184 33.512 15.0073 33.4678C14.9963 33.4235 14.9963 33.3737 15.0073 33.3184C15.0184 33.2188 15.0184 33.1523 15.0073 33.1191C14.9963 33.0859 14.9852 33.0527 14.9741 33.0195C14.9741 32.9863 14.9797 32.9531 14.9907 32.9199C15.0018 32.8867 15.0073 32.848 15.0073 32.8037C15.0073 32.7152 14.9963 32.6156 14.9741 32.5049C14.952 32.3942 14.9409 32.2946 14.9409 32.2061C14.9631 31.9847 14.952 31.863 14.9077 31.8408C14.9299 31.7855 14.9465 31.7357 14.9575 31.6914C14.9686 31.6471 14.9797 31.5973 14.9907 31.542C14.9907 31.4645 14.9852 31.387 14.9741 31.3096C14.9631 31.2321 14.9686 31.1325 14.9907 31.0107C15.0018 30.9886 15.0129 30.9609 15.0239 30.9277C15.0461 30.8945 15.0571 30.8613 15.0571 30.8281C15.0571 30.7839 15.0516 30.7396 15.0405 30.6953C15.0295 30.651 15.0295 30.6012 15.0405 30.5459C15.0405 30.4463 15.0461 30.3411 15.0571 30.2305C15.0682 30.1198 15.0848 30.0091 15.1069 29.8984C15.1291 29.7988 15.1346 29.7269 15.1235 29.6826C15.1125 29.6383 15.1069 29.5996 15.1069 29.5664C15.1069 29.4889 15.118 29.417 15.1401 29.3506C15.1623 29.2842 15.1623 29.2067 15.1401 29.1182C15.1401 29.096 15.1346 29.0684 15.1235 29.0352C15.1235 28.9909 15.1235 28.9411 15.1235 28.8857C15.1346 28.7751 15.1346 28.6976 15.1235 28.6533C15.1125 28.598 15.1069 28.5482 15.1069 28.5039C15.1291 28.4154 15.1346 28.3656 15.1235 28.3545C15.1125 28.3434 15.1069 28.3268 15.1069 28.3047C15.1291 28.2604 15.1346 28.2327 15.1235 28.2217C15.1125 28.1995 15.1069 28.1663 15.1069 28.1221C15.118 28.0335 15.1235 27.9616 15.1235 27.9062C15.1346 27.8398 15.1346 27.7513 15.1235 27.6406C15.1014 27.5632 15.0959 27.5189 15.1069 27.5078C15.1291 27.4967 15.1346 27.4801 15.1235 27.458C15.1235 27.4248 15.1125 27.3861 15.0903 27.3418C15.0682 27.2975 15.0461 27.2533 15.0239 27.209C15.0461 27.1426 15.0516 27.0651 15.0405 26.9766C15.0295 26.888 15.0295 26.7995 15.0405 26.7109C15.0405 26.6888 15.0461 26.6611 15.0571 26.6279C15.0682 26.5837 15.0737 26.5505 15.0737 26.5283C15.0405 26.4398 15.0184 26.3789 15.0073 26.3457C15.0073 26.3014 15.0018 26.2682 14.9907 26.2461C14.9797 26.2018 14.9631 26.1576 14.9409 26.1133C14.9188 26.069 14.9077 26.0303 14.9077 25.9971C14.9077 25.9307 14.9243 25.8698 14.9575 25.8145C14.9907 25.7591 15.0239 25.7038 15.0571 25.6484C15.0793 25.6263 15.1014 25.6097 15.1235 25.5986C15.1567 25.5765 15.1955 25.571 15.2397 25.582C15.2619 25.5599 15.284 25.5378 15.3062 25.5156C15.3394 25.4824 15.3726 25.4548 15.4058 25.4326C15.4943 25.4105 15.5607 25.4215 15.605 25.4658C15.6603 25.499 15.7157 25.5267 15.771 25.5488C15.8595 25.5267 15.9536 25.5212 16.0532 25.5322C16.1528 25.5322 16.2635 25.5212 16.3853 25.499C16.4849 25.4769 16.5568 25.4714 16.6011 25.4824C16.6453 25.4824 16.6785 25.4824 16.7007 25.4824C16.8446 25.4492 16.9608 25.4326 17.0493 25.4326C17.1379 25.4326 17.2153 25.4382 17.2817 25.4492C17.3703 25.4492 17.4201 25.4548 17.4312 25.4658C17.4533 25.4769 17.4754 25.4824 17.4976 25.4824C17.5529 25.4603 17.6027 25.4603 17.647 25.4824C17.6912 25.4935 17.7355 25.5046 17.7798 25.5156C17.8683 25.5267 17.9569 25.5322 18.0454 25.5322C18.134 25.5322 18.2225 25.5378 18.311 25.5488C18.3996 25.5599 18.4881 25.571 18.5767 25.582C18.6763 25.5931 18.7703 25.6152 18.8589 25.6484C18.8921 25.6595 18.9253 25.6761 18.9585 25.6982C18.9917 25.7204 19.0249 25.737 19.0581 25.748C19.1024 25.7591 19.1522 25.7646 19.2075 25.7646C19.2739 25.7536 19.3348 25.7591 19.3901 25.7812C19.5119 25.8034 19.6281 25.8421 19.7388 25.8975C19.8605 25.9417 19.9823 25.9749 20.104 25.9971C20.1593 26.0192 20.2202 26.0413 20.2866 26.0635C20.353 26.0745 20.4139 26.1022 20.4692 26.1465C20.6242 26.1465 20.7625 26.1631 20.8843 26.1963C21.006 26.2184 21.1112 26.2516 21.1997 26.2959C21.255 26.318 21.3159 26.3402 21.3823 26.3623C21.4598 26.3844 21.5207 26.4176 21.5649 26.4619C21.6203 26.5062 21.6701 26.5449 21.7144 26.5781C21.7586 26.6113 21.8029 26.6501 21.8472 26.6943C21.9136 26.7497 21.9523 26.7939 21.9634 26.8271C21.9855 26.8493 22.0076 26.8714 22.0298 26.8936C22.0962 26.9489 22.1349 26.9932 22.146 27.0264C22.1681 27.0596 22.1903 27.0817 22.2124 27.0928C22.2677 27.126 22.3065 27.1592 22.3286 27.1924C22.3618 27.2145 22.395 27.2311 22.4282 27.2422C22.4504 27.3307 22.4891 27.3971 22.5444 27.4414C22.6108 27.4857 22.6717 27.5355 22.7271 27.5908C22.7824 27.6904 22.8156 27.7679 22.8267 27.8232C22.8377 27.8786 22.8654 27.9173 22.9097 27.9395C22.965 28.1276 22.9982 28.2936 23.0093 28.4375C23.0203 28.5814 23.0701 28.6921 23.1587 28.7695C23.1476 28.8581 23.1532 28.9411 23.1753 29.0186C23.2085 29.085 23.2417 29.1569 23.2749 29.2344C23.2528 29.2897 23.2472 29.3451 23.2583 29.4004C23.2694 29.4447 23.2749 29.4945 23.2749 29.5498C23.2749 29.6051 23.2583 29.6605 23.2251 29.7158C23.203 29.7712 23.214 29.821 23.2583 29.8652C23.214 29.998 23.1698 30.1364 23.1255 30.2803C23.0923 30.4131 23.0369 30.5404 22.9595 30.6621C22.9373 30.6842 22.9207 30.7119 22.9097 30.7451C22.8986 30.7673 22.8654 30.7783 22.8101 30.7783C22.8211 30.8447 22.8101 30.8945 22.7769 30.9277C22.7437 30.9499 22.7271 30.9886 22.7271 31.0439C22.6385 31.0993 22.5666 31.1546 22.5112 31.21C22.467 31.2542 22.4172 31.3206 22.3618 31.4092C22.3286 31.4535 22.2954 31.4867 22.2622 31.5088C22.2401 31.5309 22.2013 31.5586 22.146 31.5918C22.0575 31.6471 21.991 31.6859 21.9468 31.708C21.9025 31.7301 21.8638 31.7523 21.8306 31.7744C21.7531 31.8076 21.7033 31.8353 21.6812 31.8574C21.6701 31.8796 21.6535 31.8962 21.6313 31.9072C21.5981 31.9294 21.5594 31.9515 21.5151 31.9736C21.4819 31.9847 21.4487 32.0013 21.4155 32.0234C21.3491 32.0788 21.2993 32.112 21.2661 32.123C21.244 32.1341 21.2274 32.1452 21.2163 32.1562C21.1167 32.2005 21.006 32.2448 20.8843 32.2891C20.7736 32.3223 20.6629 32.3776 20.5522 32.4551C20.4969 32.4329 20.4416 32.4385 20.3862 32.4717C20.3309 32.5049 20.27 32.5326 20.2036 32.5547C20.1151 32.5768 20.0376 32.5879 19.9712 32.5879C19.9159 32.5768 19.8771 32.6156 19.855 32.7041C19.8328 32.7816 19.855 32.8369 19.9214 32.8701C19.9989 32.9033 20.0708 32.9476 20.1372 33.0029C20.1593 33.0583 20.187 33.1136 20.2202 33.1689C20.2645 33.2132 20.3198 33.2464 20.3862 33.2686C20.4748 33.3571 20.5246 33.4346 20.5356 33.501C20.5578 33.5674 20.6131 33.6061 20.7017 33.6172C20.7238 33.6725 20.7681 33.7445 20.8345 33.833C20.9119 33.8994 20.9507 33.9437 20.9507 33.9658C20.9618 33.988 20.9728 34.0101 20.9839 34.0322C21.0392 34.1208 21.078 34.1706 21.1001 34.1816C21.1222 34.1927 21.1333 34.2093 21.1333 34.2314C21.1776 34.2979 21.2218 34.3698 21.2661 34.4473C21.3215 34.5247 21.3602 34.6077 21.3823 34.6963C21.4155 34.7295 21.4487 34.7627 21.4819 34.7959C21.5151 34.8291 21.5539 34.8623 21.5981 34.8955C21.5981 34.9398 21.6037 34.973 21.6147 34.9951C21.6369 35.0173 21.6479 35.0505 21.6479 35.0947C21.7144 35.1722 21.7863 35.2497 21.8638 35.3271C21.9412 35.4046 21.9966 35.5042 22.0298 35.626C22.063 35.6481 22.0907 35.6758 22.1128 35.709C22.1349 35.7311 22.1681 35.7477 22.2124 35.7588C22.2456 35.8695 22.2954 35.9691 22.3618 36.0576C22.4393 36.1351 22.5112 36.2236 22.5776 36.3232C22.6108 36.3786 22.6606 36.4339 22.7271 36.4893C22.7713 36.5446 22.8101 36.6055 22.8433 36.6719C22.8765 36.7272 22.9152 36.7826 22.9595 36.8379C23.0148 36.9264 23.0535 37.0039 23.0757 37.0703C23.1089 37.1257 23.1532 37.1644 23.2085 37.1865C23.2196 37.2419 23.2362 37.2861 23.2583 37.3193C23.2915 37.3415 23.3026 37.3857 23.2915 37.4521C23.3358 37.4743 23.38 37.502 23.4243 37.5352C23.4686 37.5573 23.5184 37.5794 23.5737 37.6016C23.5959 37.6901 23.6125 37.7676 23.6235 37.834C23.6457 37.8893 23.6457 37.9502 23.6235 38.0166ZM21.3159 29.2178C21.2606 29.1071 21.2274 29.0296 21.2163 28.9854C21.2163 28.9411 21.2108 28.9079 21.1997 28.8857C21.1886 28.8525 21.1665 28.8249 21.1333 28.8027C21.1112 28.7806 21.089 28.7529 21.0669 28.7197C21.0116 28.609 20.9618 28.5371 20.9175 28.5039C20.8843 28.4818 20.8566 28.4541 20.8345 28.4209C20.8123 28.3766 20.7847 28.349 20.7515 28.3379C20.6629 28.2715 20.6021 28.2161 20.5688 28.1719C20.5467 28.1276 20.508 28.111 20.4526 28.1221C20.4305 28.0557 20.3807 28.0169 20.3032 28.0059C20.2368 27.9837 20.1925 27.9395 20.1704 27.873C20.0819 27.862 20.0099 27.8398 19.9546 27.8066C19.8993 27.7734 19.8384 27.7347 19.772 27.6904C19.7388 27.7015 19.7056 27.7181 19.6724 27.7402C19.6502 27.7624 19.6115 27.7679 19.5562 27.7568C19.5008 27.7458 19.451 27.7292 19.4067 27.707C19.3735 27.6849 19.3293 27.6683 19.2739 27.6572C19.1522 27.6683 19.0636 27.6683 19.0083 27.6572C18.953 27.6351 18.9087 27.624 18.8755 27.624C18.7648 27.5798 18.6763 27.5576 18.6099 27.5576C18.5213 27.5465 18.4272 27.5521 18.3276 27.5742C18.228 27.5853 18.1284 27.5964 18.0288 27.6074C17.8407 27.6074 17.658 27.5964 17.481 27.5742C17.3039 27.5521 17.1268 27.5521 16.9497 27.5742C16.9276 27.6185 16.9276 27.6572 16.9497 27.6904C16.9829 27.7126 16.9995 27.7513 16.9995 27.8066C16.9884 27.9284 16.9884 28.0169 16.9995 28.0723C17.0106 28.1165 17.0161 28.1608 17.0161 28.2051C16.994 28.2936 16.9884 28.349 16.9995 28.3711C17.0106 28.3932 17.0161 28.4098 17.0161 28.4209V28.7031C16.994 28.847 16.9829 28.9909 16.9829 29.1348C16.994 29.2676 16.994 29.4059 16.9829 29.5498C16.9829 29.7158 16.9774 29.8652 16.9663 29.998C16.9663 30.1198 16.9608 30.2471 16.9497 30.3799C16.9608 30.5016 16.9552 30.5846 16.9331 30.6289C16.922 30.6621 16.9165 30.7008 16.9165 30.7451C16.9054 30.8558 16.9165 30.9775 16.9497 31.1104C17.0715 31.1436 17.1877 31.1602 17.2983 31.1602C17.4201 31.1602 17.5086 31.1602 17.564 31.1602C17.6414 31.1712 17.6857 31.1768 17.6968 31.1768C17.7189 31.1657 17.7521 31.1602 17.7964 31.1602C17.9071 31.1712 18.0067 31.1878 18.0952 31.21C18.1948 31.221 18.3 31.2155 18.4106 31.1934C18.466 31.1934 18.5158 31.1934 18.5601 31.1934C18.6154 31.1823 18.6707 31.1712 18.7261 31.1602C18.8146 31.127 18.8755 31.1104 18.9087 31.1104C18.953 31.1104 18.9862 31.1104 19.0083 31.1104C19.13 31.0661 19.2131 31.0439 19.2573 31.0439C19.3016 31.0329 19.3348 31.0218 19.3569 31.0107C19.5783 30.9222 19.7388 30.8613 19.8384 30.8281C19.9933 30.7728 20.1095 30.734 20.187 30.7119C20.2756 30.6898 20.353 30.6732 20.4194 30.6621C20.4526 30.5625 20.519 30.5016 20.6187 30.4795C20.7183 30.4574 20.7791 30.3854 20.8013 30.2637C20.8345 30.2415 20.8677 30.2305 20.9009 30.2305C20.9451 30.2305 20.9728 30.2083 20.9839 30.1641C21.0171 30.0645 21.0503 29.9593 21.0835 29.8486C21.1167 29.738 21.161 29.6439 21.2163 29.5664C21.2052 29.4779 21.2108 29.4225 21.2329 29.4004C21.2661 29.3672 21.2938 29.3063 21.3159 29.2178ZM36.1079 37.502C36.0858 37.5684 36.036 37.6071 35.9585 37.6182C35.881 37.6292 35.8312 37.668 35.8091 37.7344C35.6984 37.7122 35.6265 37.679 35.5933 37.6348C35.5379 37.6901 35.4937 37.7233 35.4604 37.7344C35.4272 37.7344 35.3996 37.7399 35.3774 37.751C35.2889 37.7842 35.2225 37.8285 35.1782 37.8838C35.145 37.8727 35.1118 37.8561 35.0786 37.834C35.0454 37.8118 35.0067 37.7952 34.9624 37.7842C34.8407 37.7952 34.7521 37.8063 34.6968 37.8174C34.6414 37.8285 34.5916 37.834 34.5474 37.834C34.4588 37.834 34.3813 37.8285 34.3149 37.8174C34.2485 37.7952 34.1711 37.7952 34.0825 37.8174C34.0382 37.8395 33.9884 37.8451 33.9331 37.834C33.8778 37.8229 33.828 37.8451 33.7837 37.9004C33.7284 37.9115 33.6951 37.9059 33.6841 37.8838C33.673 37.8617 33.6398 37.8561 33.5845 37.8672C33.5291 37.9004 33.4627 37.9281 33.3853 37.9502C33.3188 37.9613 33.2469 37.9779 33.1694 38C33.103 37.9779 33.0532 37.9391 33.02 37.8838C32.9979 37.8174 32.9591 37.762 32.9038 37.7178C32.9149 37.6624 32.9149 37.6071 32.9038 37.5518C32.9038 37.4964 32.9149 37.4577 32.937 37.4355C32.9038 37.4023 32.8872 37.3691 32.8872 37.3359C32.8872 37.2917 32.8817 37.2419 32.8706 37.1865C32.8263 37.098 32.7987 37.026 32.7876 36.9707C32.7655 36.86 32.7378 36.7715 32.7046 36.7051C32.6714 36.6387 32.6659 36.5778 32.688 36.5225C32.6326 36.4671 32.5994 36.4062 32.5884 36.3398C32.5773 36.2624 32.5552 36.1683 32.522 36.0576C32.4888 36.0023 32.4722 35.9635 32.4722 35.9414C32.4832 35.9082 32.4832 35.8805 32.4722 35.8584C32.4168 35.7367 32.3892 35.6536 32.3892 35.6094C32.3892 35.5651 32.3836 35.5208 32.3726 35.4766C32.3283 35.377 32.2951 35.2939 32.2729 35.2275C32.2619 35.1611 32.2453 35.1003 32.2231 35.0449C32.201 35.0117 32.1789 34.984 32.1567 34.9619C32.1346 34.9287 32.1125 34.89 32.0903 34.8457C32.0682 34.8014 32.0571 34.7572 32.0571 34.7129C32.0571 34.6576 32.0461 34.6077 32.0239 34.5635C32.0018 34.5192 31.9797 34.4805 31.9575 34.4473C31.9465 34.4141 31.9354 34.3809 31.9243 34.3477C31.9022 34.2812 31.8856 34.2148 31.8745 34.1484C31.8745 34.071 31.8524 34.0046 31.8081 33.9492C31.7417 33.9271 31.6753 33.9271 31.6089 33.9492C31.5425 33.9714 31.4816 33.988 31.4263 33.999C31.3931 33.999 31.3543 33.999 31.3101 33.999C31.2769 33.988 31.2437 33.988 31.2104 33.999C31.133 34.0101 31.061 34.0267 30.9946 34.0488C30.9393 34.0599 30.8784 34.0544 30.812 34.0322C30.7677 34.0322 30.729 34.0378 30.6958 34.0488C30.6737 34.0599 30.6349 34.0654 30.5796 34.0654C30.5464 34.0433 30.4855 34.0378 30.397 34.0488C30.3195 34.0488 30.2476 34.0488 30.1812 34.0488C30.1037 34.0599 30.0262 34.071 29.9487 34.082C29.8713 34.0931 29.8104 34.0876 29.7661 34.0654C29.6444 34.0544 29.5614 34.0433 29.5171 34.0322C29.4728 34.0212 29.4341 34.0156 29.4009 34.0156C29.3123 34.0046 29.2293 34.0046 29.1519 34.0156C29.0744 34.0267 28.9914 34.0212 28.9028 33.999C28.8696 34.0212 28.8309 34.0378 28.7866 34.0488C28.7424 34.0599 28.7091 34.082 28.687 34.1152C28.5653 34.0931 28.4601 34.0931 28.3716 34.1152C28.2941 34.1374 28.1945 34.1429 28.0728 34.1318C27.9842 34.1982 27.9399 34.2757 27.9399 34.3643C27.9399 34.4528 27.9289 34.5413 27.9067 34.6299C27.8846 34.7184 27.8514 34.8014 27.8071 34.8789C27.7629 34.9453 27.7186 35.0173 27.6743 35.0947C27.6522 35.1501 27.63 35.2054 27.6079 35.2607C27.5858 35.3161 27.5581 35.3714 27.5249 35.4268C27.5028 35.4821 27.4862 35.5208 27.4751 35.543C27.464 35.5651 27.453 35.5872 27.4419 35.6094C27.4308 35.6315 27.4198 35.6426 27.4087 35.6426C27.3976 35.7311 27.381 35.792 27.3589 35.8252C27.3368 35.8473 27.3257 35.8695 27.3257 35.8916C27.3035 35.9469 27.2925 35.9967 27.2925 36.041C27.3035 36.0853 27.3035 36.1351 27.2925 36.1904C27.2703 36.2679 27.2371 36.3343 27.1929 36.3896C27.1597 36.445 27.1431 36.5169 27.1431 36.6055C27.0545 36.6719 26.9881 36.766 26.9438 36.8877C26.8996 36.9984 26.8332 37.0924 26.7446 37.1699C26.7336 37.2695 26.7114 37.3636 26.6782 37.4521C26.645 37.5407 26.6063 37.6292 26.562 37.7178C26.5288 37.7952 26.5011 37.8838 26.479 37.9834C26.4569 38.0719 26.4458 38.1771 26.4458 38.2988C26.4126 38.321 26.3573 38.3486 26.2798 38.3818C26.2023 38.4261 26.1359 38.4316 26.0806 38.3984C25.981 38.3431 25.8924 38.3044 25.8149 38.2822C25.7485 38.2601 25.6877 38.2324 25.6323 38.1992C25.6102 38.1882 25.5493 38.1771 25.4497 38.166C25.3501 38.166 25.2726 38.166 25.2173 38.166C25.1398 38.1771 25.0845 38.1771 25.0513 38.166C25.0181 38.1549 24.9849 38.1439 24.9517 38.1328C24.9074 38.1328 24.8631 38.1328 24.8188 38.1328C24.7856 38.1439 24.7414 38.1439 24.686 38.1328C24.5532 38.1107 24.4259 38.0664 24.3042 38C24.1825 37.9447 24.0662 37.9004 23.9556 37.8672C23.9556 37.8118 23.9611 37.7676 23.9722 37.7344C23.9832 37.6901 23.9998 37.6403 24.022 37.585C24.0441 37.5296 24.0718 37.4964 24.105 37.4854C24.1382 37.4632 24.1493 37.43 24.1382 37.3857C24.1714 37.2972 24.2101 37.2087 24.2544 37.1201C24.2876 37.0316 24.3263 36.943 24.3706 36.8545C24.4149 36.7438 24.4481 36.6774 24.4702 36.6553C24.4924 36.6221 24.5145 36.5944 24.5366 36.5723C24.5809 36.4616 24.6086 36.3896 24.6196 36.3564C24.6418 36.3122 24.6584 36.279 24.6694 36.2568C24.6916 36.2015 24.7082 36.1572 24.7192 36.124C24.7303 36.0908 24.758 36.0465 24.8022 35.9912L24.9517 35.792C24.9849 35.6813 25.0181 35.6038 25.0513 35.5596C25.0845 35.5042 25.1121 35.46 25.1343 35.4268C25.1896 35.3604 25.2339 35.2939 25.2671 35.2275C25.3003 35.1501 25.339 35.0671 25.3833 34.9785C25.4276 34.9232 25.4663 34.8734 25.4995 34.8291C25.5327 34.7738 25.5604 34.7129 25.5825 34.6465C25.6047 34.569 25.6213 34.5247 25.6323 34.5137C25.6434 34.4915 25.6545 34.4694 25.6655 34.4473C25.6766 34.3809 25.6821 34.3421 25.6821 34.3311C25.6932 34.3089 25.7043 34.2868 25.7153 34.2646C25.7707 34.1761 25.8149 34.0765 25.8481 33.9658C25.8924 33.8551 25.9422 33.7555 25.9976 33.667C26.0197 33.6117 26.0529 33.5618 26.0972 33.5176C26.1525 33.4733 26.1802 33.4124 26.1802 33.335C26.2355 33.3018 26.2743 33.2575 26.2964 33.2021C26.3185 33.1357 26.3462 33.0749 26.3794 33.0195C26.4015 32.9642 26.4292 32.9144 26.4624 32.8701C26.5067 32.8258 26.5454 32.776 26.5786 32.7207C26.6007 32.6654 26.6229 32.61 26.645 32.5547C26.6782 32.4883 26.7114 32.4274 26.7446 32.3721C26.7668 32.3167 26.7944 32.2669 26.8276 32.2227C26.8608 32.1673 26.9106 32.1286 26.9771 32.1064C26.9549 32.0511 26.9549 31.9958 26.9771 31.9404C27.0103 31.874 27.0379 31.8132 27.0601 31.7578C27.0822 31.7135 27.1099 31.6748 27.1431 31.6416C27.1763 31.5973 27.2039 31.5531 27.2261 31.5088L27.3091 31.3428C27.3534 31.2321 27.3866 31.1657 27.4087 31.1436C27.4419 31.1104 27.464 31.0827 27.4751 31.0605C27.4972 31.0273 27.5028 30.9941 27.4917 30.9609C27.4917 30.9277 27.4972 30.9001 27.5083 30.8779C27.5747 30.8337 27.6245 30.7783 27.6577 30.7119C27.6909 30.6455 27.7297 30.5736 27.7739 30.4961C27.8071 30.4408 27.8403 30.3743 27.8735 30.2969C27.9067 30.2083 27.951 30.1309 28.0063 30.0645C27.9953 30.0091 28.0008 29.9648 28.0229 29.9316C28.0451 29.8874 28.0672 29.8376 28.0894 29.7822C28.1115 29.749 28.1281 29.7158 28.1392 29.6826C28.1613 29.6383 28.1834 29.5996 28.2056 29.5664C28.283 29.4668 28.3273 29.3783 28.3384 29.3008C28.3605 29.2233 28.3826 29.1514 28.4048 29.085C28.4269 29.0296 28.4491 28.9854 28.4712 28.9521C28.5044 28.9189 28.5321 28.8802 28.5542 28.8359C28.5763 28.7917 28.5929 28.7474 28.604 28.7031C28.6151 28.6589 28.6427 28.6257 28.687 28.6035C28.6981 28.4928 28.7202 28.3988 28.7534 28.3213C28.7977 28.2438 28.8364 28.1608 28.8696 28.0723C28.9028 27.9948 28.9637 27.9173 29.0522 27.8398C29.0633 27.7734 29.0688 27.707 29.0688 27.6406C29.0688 27.5742 29.0799 27.5133 29.1021 27.458C29.1242 27.4027 29.1519 27.3584 29.1851 27.3252C29.2183 27.292 29.2459 27.2533 29.2681 27.209C29.3123 27.0651 29.3455 26.9489 29.3677 26.8604C29.4009 26.7607 29.4341 26.6667 29.4673 26.5781C29.5005 26.5007 29.5337 26.4121 29.5669 26.3125C29.6001 26.2018 29.6333 26.1022 29.6665 26.0137C29.6997 25.9473 29.7274 25.8864 29.7495 25.8311C29.7827 25.7646 29.8104 25.6982 29.8325 25.6318C29.9432 25.5765 30.0262 25.499 30.0815 25.3994C30.1369 25.2998 30.1812 25.1891 30.2144 25.0674C30.2808 25.0452 30.325 25.0397 30.3472 25.0508C30.3804 25.0508 30.4136 25.0508 30.4468 25.0508C30.5575 25.0729 30.6239 25.1117 30.646 25.167C30.6681 25.2223 30.7013 25.2721 30.7456 25.3164C30.8009 25.3828 30.8397 25.4437 30.8618 25.499C30.895 25.5433 30.9227 25.5876 30.9448 25.6318C30.9891 25.6761 31.0334 25.737 31.0776 25.8145C31.133 25.8919 31.1717 25.9694 31.1938 26.0469C31.216 26.0911 31.2381 26.141 31.2603 26.1963C31.2824 26.2516 31.3045 26.307 31.3267 26.3623C31.3599 26.4176 31.3875 26.4785 31.4097 26.5449C31.4429 26.6113 31.4761 26.6833 31.5093 26.7607C31.5425 26.8493 31.5757 26.9544 31.6089 27.0762C31.6532 27.1868 31.6919 27.2975 31.7251 27.4082C31.7472 27.4635 31.7583 27.5133 31.7583 27.5576C31.7694 27.6019 31.786 27.6462 31.8081 27.6904C31.8302 27.7458 31.8468 27.79 31.8579 27.8232C31.88 27.8564 31.9022 27.8896 31.9243 27.9229C31.9686 28.0225 32.0129 28.1331 32.0571 28.2549C32.1125 28.3656 32.1678 28.4818 32.2231 28.6035C32.2453 28.6367 32.2619 28.6699 32.2729 28.7031C32.2951 28.7363 32.3172 28.7751 32.3394 28.8193C32.3615 28.8415 32.3781 28.8691 32.3892 28.9023C32.4113 28.9355 32.4334 28.9688 32.4556 29.002C32.4777 29.0352 32.4943 29.0739 32.5054 29.1182C32.5275 29.1624 32.5552 29.2012 32.5884 29.2344C32.6216 29.3008 32.6493 29.3617 32.6714 29.417C32.7046 29.4613 32.7323 29.5277 32.7544 29.6162C32.7765 29.6826 32.7987 29.7656 32.8208 29.8652C32.854 29.9648 32.8761 30.0589 32.8872 30.1475C32.9425 30.2471 32.9924 30.3633 33.0366 30.4961C33.092 30.6178 33.1418 30.7396 33.186 30.8613C33.2192 30.8945 33.2469 30.9277 33.269 30.9609C33.3022 30.9831 33.3354 31.0163 33.3687 31.0605C33.3908 31.1159 33.4129 31.1546 33.4351 31.1768C33.4572 31.1989 33.4738 31.221 33.4849 31.2432C33.5291 31.3428 33.5623 31.4424 33.5845 31.542C33.6177 31.6305 33.6453 31.7191 33.6675 31.8076C33.6896 31.863 33.7173 31.9183 33.7505 31.9736C33.7837 32.029 33.8003 32.0954 33.8003 32.1729C33.8667 32.2614 33.9165 32.3444 33.9497 32.4219C33.9829 32.4883 34.0106 32.5492 34.0327 32.6045C34.0881 32.693 34.1268 32.7594 34.1489 32.8037C34.1711 32.8369 34.1932 32.8757 34.2153 32.9199C34.2928 33.0195 34.3537 33.1247 34.3979 33.2354C34.4201 33.2796 34.4312 33.3294 34.4312 33.3848C34.4422 33.429 34.4588 33.4678 34.481 33.501C34.5031 33.5785 34.5308 33.6559 34.564 33.7334C34.5972 33.7998 34.6248 33.8773 34.647 33.9658C34.7023 34.0101 34.741 34.0599 34.7632 34.1152C34.7964 34.1706 34.8241 34.2259 34.8462 34.2812C34.8683 34.3145 34.8905 34.3643 34.9126 34.4307C34.9347 34.486 34.9569 34.5413 34.979 34.5967C35.0122 34.6852 35.0565 34.7738 35.1118 34.8623C35.1672 34.9508 35.2059 35.0394 35.228 35.1279C35.2502 35.1833 35.2723 35.2386 35.2944 35.2939C35.3276 35.3493 35.3553 35.4046 35.3774 35.46C35.3996 35.5153 35.4051 35.5651 35.394 35.6094C35.394 35.6426 35.4051 35.6758 35.4272 35.709C35.4494 35.7643 35.4826 35.8363 35.5269 35.9248C35.5933 36.1462 35.6707 36.3786 35.7593 36.6221C35.8146 36.766 35.8755 36.9098 35.9419 37.0537C36.0194 37.1976 36.0747 37.347 36.1079 37.502ZM31.6421 32.5049C31.6642 32.4606 31.6698 32.4163 31.6587 32.3721C31.6476 32.3278 31.6366 32.278 31.6255 32.2227C31.6144 32.1784 31.6034 32.1286 31.5923 32.0732C31.5923 32.0179 31.5812 31.9681 31.5591 31.9238C31.5369 31.8796 31.5093 31.8464 31.4761 31.8242C31.4539 31.791 31.4373 31.7578 31.4263 31.7246C31.4041 31.5697 31.382 31.4368 31.3599 31.3262C31.3488 31.2044 31.3322 31.0827 31.3101 30.9609C31.2547 30.9167 31.2104 30.8613 31.1772 30.7949C31.1108 30.7064 31.0666 30.6344 31.0444 30.5791C31.0334 30.5127 31.0223 30.4518 31.0112 30.3965C30.9891 30.3079 30.967 30.236 30.9448 30.1807C30.9227 30.1143 30.9006 30.0534 30.8784 29.998C30.8563 29.9095 30.8397 29.832 30.8286 29.7656C30.8175 29.6992 30.8009 29.6328 30.7788 29.5664C30.7677 29.5332 30.7567 29.5055 30.7456 29.4834C30.7345 29.4502 30.7235 29.417 30.7124 29.3838C30.6903 29.3174 30.6681 29.2454 30.646 29.168C30.6239 29.0905 30.5851 29.0407 30.5298 29.0186C30.4191 29.0628 30.3582 29.1292 30.3472 29.2178C30.314 29.3395 30.2752 29.4225 30.231 29.4668C30.1867 29.5111 30.159 29.5443 30.1479 29.5664C30.1258 29.6882 30.1037 29.7767 30.0815 29.832C30.0705 29.8763 30.0539 29.9261 30.0317 29.9814C30.0096 30.0368 29.9875 30.0866 29.9653 30.1309C29.9543 30.1751 29.9377 30.2194 29.9155 30.2637C29.8934 30.2969 29.8713 30.3301 29.8491 30.3633C29.8381 30.3965 29.827 30.4242 29.8159 30.4463C29.7163 30.6344 29.6278 30.8005 29.5503 30.9443C29.4728 31.0771 29.4064 31.2155 29.3511 31.3594C29.3289 31.4147 29.3123 31.4701 29.3013 31.5254C29.2902 31.5697 29.2736 31.6195 29.2515 31.6748C29.2293 31.7191 29.2017 31.7578 29.1685 31.791C29.1353 31.8242 29.1076 31.8685 29.0854 31.9238C29.0744 31.957 29.0688 31.9902 29.0688 32.0234C29.0799 32.0456 29.0799 32.0788 29.0688 32.123C28.9914 32.2448 28.9416 32.3444 28.9194 32.4219C28.9084 32.4883 28.8918 32.5492 28.8696 32.6045C28.9914 32.6598 29.1131 32.6875 29.2349 32.6875C29.3677 32.6764 29.495 32.6709 29.6167 32.6709C29.827 32.6598 30.0428 32.6488 30.2642 32.6377C30.4855 32.6156 30.6737 32.5879 30.8286 32.5547C30.9614 32.5326 31.0998 32.5326 31.2437 32.5547C31.3875 32.5768 31.5203 32.5602 31.6421 32.5049Z" fill="#F06292"/>
<path d="M48.144 27.6738C48.133 27.7734 48.1108 27.862 48.0776 27.9395C48.0444 28.0059 48.0002 28.0723 47.9448 28.1387C47.8674 28.2161 47.8231 28.277 47.812 28.3213C47.8009 28.3545 47.7843 28.3822 47.7622 28.4043C47.7069 28.4818 47.6737 28.5316 47.6626 28.5537C47.6515 28.5758 47.6405 28.5924 47.6294 28.6035C47.5851 28.6478 47.5519 28.6865 47.5298 28.7197C47.5187 28.7529 47.4966 28.764 47.4634 28.7529C47.4412 28.8525 47.3914 28.9632 47.314 29.085C47.2365 29.1956 47.1369 29.262 47.0151 29.2842C46.9377 29.2842 46.8602 29.2676 46.7827 29.2344C46.7163 29.1901 46.6665 29.1237 46.6333 29.0352C46.589 29.0241 46.5503 29.013 46.5171 29.002C46.495 28.9909 46.4618 28.9743 46.4175 28.9521C46.4064 28.8968 46.3787 28.8691 46.3345 28.8691C46.3013 28.8581 46.2847 28.8249 46.2847 28.7695C46.2183 28.7474 46.1629 28.7197 46.1187 28.6865C46.0854 28.6423 46.0412 28.6035 45.9858 28.5703C45.9416 28.5371 45.8918 28.4984 45.8364 28.4541C45.7811 28.4098 45.7368 28.349 45.7036 28.2715C45.6151 28.2161 45.5265 28.1608 45.438 28.1055C45.3494 28.0501 45.2554 27.9948 45.1558 27.9395C45.0672 27.8952 44.9676 27.8454 44.8569 27.79C44.7573 27.7236 44.6466 27.6849 44.5249 27.6738C44.5028 27.6296 44.464 27.6019 44.4087 27.5908C44.3644 27.5687 44.3201 27.541 44.2759 27.5078C44.1541 27.4967 44.0324 27.4801 43.9106 27.458C43.8 27.4359 43.6782 27.4137 43.5454 27.3916C43.4237 27.4359 43.2687 27.4525 43.0806 27.4414C42.9035 27.4193 42.7541 27.3916 42.6323 27.3584C42.5991 27.3584 42.5659 27.3695 42.5327 27.3916C42.4995 27.4137 42.4608 27.4303 42.4165 27.4414C42.328 27.4414 42.2616 27.4469 42.2173 27.458C42.1841 27.4691 42.1564 27.4801 42.1343 27.4912C42.09 27.5023 42.0457 27.5078 42.0015 27.5078C41.9572 27.4967 41.9129 27.4967 41.8687 27.5078C41.8133 27.5299 41.7635 27.5521 41.7192 27.5742C41.675 27.5964 41.6252 27.6074 41.5698 27.6074C41.5145 27.6185 41.4813 27.6517 41.4702 27.707C41.4591 27.7513 41.4425 27.7845 41.4204 27.8066C41.2876 27.8288 41.1769 27.873 41.0884 27.9395C40.9998 28.0059 40.9168 28.0833 40.8394 28.1719C40.6844 28.2493 40.5571 28.3102 40.4575 28.3545C40.369 28.3877 40.3026 28.4541 40.2583 28.5537C40.1919 28.5537 40.1366 28.5703 40.0923 28.6035C40.0591 28.6257 40.0259 28.6533 39.9927 28.6865C39.9595 28.7087 39.9263 28.7363 39.8931 28.7695C39.8599 28.7917 39.8156 28.8027 39.7603 28.8027C39.7271 28.8581 39.6994 28.9079 39.6772 28.9521C39.6551 28.9964 39.6274 29.0352 39.5942 29.0684C39.4725 29.1348 39.395 29.1846 39.3618 29.2178C39.3397 29.2399 39.3009 29.2731 39.2456 29.3174C39.2013 29.3617 39.1681 29.3949 39.146 29.417C39.1349 29.4281 39.1128 29.4557 39.0796 29.5C39.0464 29.5664 39.0021 29.6494 38.9468 29.749C38.9025 29.8486 38.8472 29.9206 38.7808 29.9648C38.7586 30.0755 38.7254 30.1696 38.6812 30.2471C38.6369 30.3135 38.5871 30.3799 38.5317 30.4463C38.5096 30.4795 38.5041 30.5127 38.5151 30.5459C38.5262 30.5791 38.5207 30.6123 38.4985 30.6455C38.4875 30.6898 38.4653 30.734 38.4321 30.7783C38.3989 30.8226 38.3768 30.8669 38.3657 30.9111C38.3547 30.9665 38.3547 31.0218 38.3657 31.0771C38.3768 31.1214 38.3823 31.1657 38.3823 31.21C38.3823 31.2542 38.3713 31.293 38.3491 31.3262C38.3381 31.3483 38.3325 31.376 38.3325 31.4092C38.3104 31.542 38.2993 31.6859 38.2993 31.8408C38.2993 31.9958 38.2938 32.1341 38.2827 32.2559C38.2827 32.3001 38.2827 32.3555 38.2827 32.4219C38.2938 32.4772 38.2993 32.5326 38.2993 32.5879C38.3104 32.6432 38.3159 32.7041 38.3159 32.7705C38.3159 32.8258 38.3159 32.8701 38.3159 32.9033C38.327 32.9476 38.3436 32.9863 38.3657 33.0195C38.3879 33.0417 38.4045 33.0749 38.4155 33.1191C38.4377 33.1634 38.4432 33.2077 38.4321 33.252C38.4321 33.2962 38.4543 33.3294 38.4985 33.3516C38.4543 33.4512 38.4543 33.5176 38.4985 33.5508C38.5539 33.584 38.5705 33.6504 38.5483 33.75C38.6147 33.8275 38.6701 33.8939 38.7144 33.9492C38.7697 33.9935 38.8029 34.0267 38.814 34.0488C38.8804 34.1484 38.9246 34.2148 38.9468 34.248C38.98 34.2812 39.0076 34.32 39.0298 34.3643C39.0741 34.4196 39.1239 34.486 39.1792 34.5635C39.2456 34.641 39.3065 34.7129 39.3618 34.7793C39.4172 34.8346 39.4559 34.8789 39.478 34.9121C39.5112 34.9342 39.55 34.973 39.5942 35.0283C39.6274 35.0837 39.6662 35.1224 39.7104 35.1445C39.7547 35.1556 39.8045 35.1833 39.8599 35.2275C39.882 35.2497 39.9041 35.2773 39.9263 35.3105C39.9484 35.3327 39.9871 35.3493 40.0425 35.3604C40.0978 35.4157 40.1642 35.46 40.2417 35.4932C40.3302 35.5153 40.3856 35.5706 40.4077 35.6592C40.5295 35.7035 40.6457 35.7588 40.7563 35.8252C40.867 35.8805 40.9998 35.9303 41.1548 35.9746C41.3097 35.9967 41.4315 36.0133 41.52 36.0244C41.6196 36.0244 41.6916 36.0299 41.7358 36.041C41.8244 36.0521 41.8963 36.0576 41.9517 36.0576C42.0181 36.0576 42.1011 36.0521 42.2007 36.041C42.3224 36.0632 42.4054 36.0687 42.4497 36.0576C42.494 36.0355 42.5327 36.0244 42.5659 36.0244C42.5991 36.0244 42.6323 36.0299 42.6655 36.041C42.6987 36.0521 42.7319 36.0576 42.7651 36.0576C42.8979 36.0687 43.0252 36.0632 43.147 36.041C43.2798 36.0189 43.4126 36.0299 43.5454 36.0742C43.5786 36.0632 43.6063 36.0521 43.6284 36.041C43.6616 36.0189 43.7004 36.0023 43.7446 35.9912C43.8664 36.0244 43.9771 36.0244 44.0767 35.9912C44.1873 35.9469 44.2703 35.9469 44.3257 35.9912C44.381 35.9912 44.4142 35.9801 44.4253 35.958C44.4474 35.9359 44.4751 35.9193 44.5083 35.9082C44.5636 35.8971 44.6024 35.9027 44.6245 35.9248C44.6466 35.9359 44.6799 35.9414 44.7241 35.9414C44.7795 35.9303 44.8293 35.9082 44.8735 35.875C44.9178 35.8418 44.9676 35.8141 45.0229 35.792C45.0562 35.7699 45.0894 35.7643 45.1226 35.7754C45.1668 35.7754 45.2111 35.7699 45.2554 35.7588C45.3993 35.7256 45.5099 35.6979 45.5874 35.6758C45.6759 35.6536 45.7479 35.6426 45.8032 35.6426C45.9139 35.6315 46.019 35.626 46.1187 35.626C46.2293 35.6149 46.3179 35.5651 46.3843 35.4766C46.5724 35.4544 46.7108 35.4323 46.7993 35.4102C46.8879 35.388 46.9764 35.3714 47.0649 35.3604C47.1092 35.3936 47.1258 35.4489 47.1147 35.5264C47.1147 35.5928 47.1535 35.6315 47.231 35.6426C47.2199 35.6979 47.2199 35.7422 47.231 35.7754C47.242 35.7975 47.2531 35.8252 47.2642 35.8584C47.2863 35.9137 47.314 35.9746 47.3472 36.041C47.3914 36.0964 47.4191 36.1683 47.4302 36.2568C47.4412 36.29 47.4412 36.3232 47.4302 36.3564C47.4191 36.3786 47.4136 36.4062 47.4136 36.4395C47.4246 36.5501 47.4357 36.6165 47.4468 36.6387C47.4689 36.6608 47.48 36.6829 47.48 36.7051C47.491 36.8268 47.5021 36.9154 47.5132 36.9707C47.5243 37.026 47.5298 37.0703 47.5298 37.1035C47.5187 37.1367 47.5021 37.1755 47.48 37.2197C47.4578 37.2529 47.4468 37.2861 47.4468 37.3193C47.3582 37.3415 47.2531 37.3636 47.1313 37.3857C47.0207 37.3968 46.9377 37.3691 46.8823 37.3027C46.7938 37.3249 46.7163 37.3525 46.6499 37.3857C46.5946 37.4189 46.5226 37.4577 46.4341 37.502C46.3455 37.5573 46.2681 37.5905 46.2017 37.6016C46.1463 37.6126 46.091 37.6237 46.0356 37.6348C45.9914 37.6569 45.9471 37.6735 45.9028 37.6846C45.8696 37.6956 45.8254 37.7012 45.77 37.7012C45.7147 37.7454 45.6593 37.7842 45.604 37.8174C45.5487 37.8506 45.4823 37.8783 45.4048 37.9004C45.272 37.9557 45.1558 37.9834 45.0562 37.9834C44.9565 37.9723 44.868 37.9779 44.7905 38C44.7352 38.0111 44.6799 38.0221 44.6245 38.0332C44.5802 38.0553 44.536 38.0775 44.4917 38.0996C44.3921 38.0996 44.3201 38.0941 44.2759 38.083C44.2427 38.083 44.2095 38.0885 44.1763 38.0996C44.1209 38.0996 44.0601 38.0885 43.9937 38.0664C43.9383 38.0553 43.883 38.0553 43.8276 38.0664C43.7834 38.0664 43.7391 38.0719 43.6948 38.083C43.6506 38.1051 43.6007 38.1217 43.5454 38.1328C43.5122 38.1328 43.479 38.1273 43.4458 38.1162C43.4126 38.1051 43.3739 38.0996 43.3296 38.0996C43.3075 38.0996 43.2743 38.1051 43.23 38.1162C43.1968 38.1273 43.1691 38.1273 43.147 38.1162C42.992 38.1162 42.8315 38.1051 42.6655 38.083C42.5106 38.0609 42.3556 38.0609 42.2007 38.083C42.0789 38.0277 41.9959 38 41.9517 38C41.9185 38.0111 41.8797 38.0166 41.8354 38.0166C41.8022 37.9613 41.7414 37.9391 41.6528 37.9502C41.5643 37.9613 41.4924 37.9447 41.437 37.9004C41.4038 37.8672 41.3706 37.8506 41.3374 37.8506C41.3042 37.8506 41.2765 37.8506 41.2544 37.8506C41.1437 37.7952 41.0662 37.7233 41.022 37.6348C40.9998 37.6569 40.9666 37.668 40.9224 37.668C40.8781 37.668 40.8394 37.668 40.8062 37.668C40.7508 37.6348 40.7065 37.6016 40.6733 37.5684C40.6401 37.5352 40.5959 37.5075 40.5405 37.4854C40.4409 37.4743 40.3468 37.4632 40.2583 37.4521C40.1698 37.43 40.1034 37.3691 40.0591 37.2695C40.0148 37.2585 39.9761 37.2529 39.9429 37.2529C39.9097 37.2529 39.8765 37.2474 39.8433 37.2363C39.7437 37.1921 39.6717 37.1699 39.6274 37.1699C39.5942 37.1589 39.561 37.1423 39.5278 37.1201C39.4725 37.0758 39.4282 37.0537 39.395 37.0537C39.3729 37.0426 39.3563 37.0371 39.3452 37.0371C39.1571 36.8822 38.9744 36.7493 38.7974 36.6387C38.6313 36.528 38.4764 36.4229 38.3325 36.3232C38.2882 36.2458 38.2495 36.1738 38.2163 36.1074C38.1831 36.041 38.1222 35.9967 38.0337 35.9746C38.0448 35.9303 38.0282 35.9027 37.9839 35.8916C37.9507 35.8805 37.9396 35.8473 37.9507 35.792C37.9064 35.7588 37.8677 35.7256 37.8345 35.6924C37.8234 35.6813 37.8179 35.6702 37.8179 35.6592C37.7736 35.6038 37.7238 35.5596 37.6685 35.5264C37.6242 35.4932 37.5965 35.46 37.5854 35.4268C37.5633 35.3714 37.5301 35.3161 37.4858 35.2607C37.4416 35.2054 37.3973 35.1501 37.353 35.0947C37.1981 34.9066 37.104 34.7406 37.0708 34.5967C37.0155 34.4528 36.9657 34.3643 36.9214 34.3311C36.8771 34.2868 36.8605 34.2259 36.8716 34.1484C36.8494 34.1152 36.8273 34.0876 36.8052 34.0654C36.783 34.0322 36.7609 33.9935 36.7388 33.9492C36.7498 33.8496 36.7388 33.7721 36.7056 33.7168C36.6834 33.6615 36.6502 33.6061 36.606 33.5508C36.617 33.4954 36.6281 33.4567 36.6392 33.4346C36.6502 33.4014 36.6502 33.3516 36.6392 33.2852C36.617 33.2298 36.5894 33.1745 36.5562 33.1191C36.5229 33.0527 36.4953 32.9808 36.4731 32.9033C36.451 32.848 36.4399 32.8092 36.4399 32.7871C36.451 32.7539 36.4455 32.693 36.4233 32.6045C36.4123 32.5492 36.3957 32.4717 36.3735 32.3721C36.3514 32.2614 36.3459 32.1673 36.3569 32.0898C36.368 32.0345 36.3846 31.9847 36.4067 31.9404C36.4289 31.8962 36.451 31.8519 36.4731 31.8076C36.4399 31.6195 36.4676 31.4645 36.5562 31.3428C36.5008 31.0771 36.5229 30.8115 36.6226 30.5459C36.6558 30.4684 36.6724 30.391 36.6724 30.3135C36.6834 30.236 36.7 30.1696 36.7222 30.1143C36.7222 30.0921 36.7332 30.0589 36.7554 30.0146C36.7886 29.9704 36.7941 29.9095 36.772 29.832C36.7941 29.7988 36.8107 29.7712 36.8218 29.749C36.8439 29.7158 36.866 29.6826 36.8882 29.6494C36.9103 29.5166 36.9491 29.3893 37.0044 29.2676C37.0708 29.1348 37.1427 29.0075 37.2202 28.8857C37.3309 28.7419 37.4139 28.609 37.4692 28.4873C37.5246 28.3545 37.5854 28.2438 37.6519 28.1553C37.7072 28.0889 37.7681 28.028 37.8345 27.9727C37.9009 27.9173 37.9562 27.8454 38.0005 27.7568C38.0669 27.7679 38.1112 27.7513 38.1333 27.707C38.1554 27.6517 38.1942 27.624 38.2495 27.624C38.2606 27.5798 38.2993 27.5244 38.3657 27.458C38.4543 27.3473 38.5262 27.2699 38.5815 27.2256C38.6369 27.1702 38.6756 27.1149 38.6978 27.0596C38.7642 27.0596 38.8084 27.0374 38.8306 26.9932C38.8638 26.9489 38.897 26.9046 38.9302 26.8604C39.0076 26.8382 39.063 26.805 39.0962 26.7607C39.1294 26.7054 39.1903 26.6722 39.2788 26.6611C39.3009 26.5947 39.3507 26.5615 39.4282 26.5615C39.5168 26.5505 39.5721 26.5062 39.5942 26.4287C39.6828 26.4176 39.7713 26.39 39.8599 26.3457C39.9484 26.2904 40.0369 26.2461 40.1255 26.2129C40.1698 26.1908 40.214 26.1742 40.2583 26.1631C40.3026 26.141 40.3468 26.1188 40.3911 26.0967C40.4907 26.0745 40.5516 26.0579 40.5737 26.0469C40.5959 26.0247 40.618 26.0081 40.6401 25.9971C40.6844 25.986 40.7342 25.9805 40.7896 25.9805C40.8449 25.9805 40.9002 25.9749 40.9556 25.9639C41.022 25.9417 41.0884 25.9141 41.1548 25.8809C41.2212 25.8477 41.2876 25.82 41.354 25.7979C41.3872 25.7868 41.4259 25.7812 41.4702 25.7812C41.5256 25.7702 41.5754 25.7591 41.6196 25.748C41.6639 25.737 41.7082 25.7259 41.7524 25.7148C41.8078 25.6927 41.8687 25.6927 41.9351 25.7148C41.9683 25.7148 42.0015 25.7148 42.0347 25.7148C42.0789 25.7148 42.1343 25.7038 42.2007 25.6816C42.3224 25.6595 42.4774 25.6318 42.6655 25.5986C42.8537 25.5654 42.9976 25.5931 43.0972 25.6816C43.1636 25.6484 43.23 25.6208 43.2964 25.5986C43.3628 25.5654 43.4403 25.5765 43.5288 25.6318C43.562 25.6318 43.5952 25.6263 43.6284 25.6152C43.6727 25.5931 43.717 25.5765 43.7612 25.5654C43.7944 25.5654 43.8221 25.5765 43.8442 25.5986C43.8774 25.6097 43.9162 25.6152 43.9604 25.6152C44.0158 25.6263 44.0601 25.6318 44.0933 25.6318C44.1375 25.6208 44.1873 25.6208 44.2427 25.6318C44.3201 25.6429 44.3921 25.6595 44.4585 25.6816C44.5249 25.7038 44.5968 25.7259 44.6743 25.748C44.7186 25.7591 44.7573 25.7646 44.7905 25.7646C44.8348 25.7536 44.8791 25.7591 44.9233 25.7812C44.9565 25.7812 44.9897 25.7923 45.0229 25.8145C45.0672 25.8255 45.1004 25.8311 45.1226 25.8311C45.1558 25.8311 45.189 25.8255 45.2222 25.8145C45.2554 25.8034 45.283 25.8034 45.3052 25.8145C45.4048 25.8366 45.4989 25.8753 45.5874 25.9307C45.6759 25.9749 45.7756 25.9915 45.8862 25.9805C46.008 26.0911 46.1519 26.1797 46.3179 26.2461C46.4839 26.3125 46.6112 26.4232 46.6997 26.5781C46.7329 26.5892 46.7661 26.6058 46.7993 26.6279C46.8325 26.639 46.8657 26.6501 46.8989 26.6611C46.9764 26.7497 47.0539 26.8382 47.1313 26.9268C47.2199 27.0153 47.325 27.0817 47.4468 27.126C47.4689 27.1813 47.5021 27.2145 47.5464 27.2256C47.6017 27.2256 47.6571 27.2367 47.7124 27.2588C47.7899 27.3252 47.8507 27.3695 47.895 27.3916C47.9504 27.4027 47.9891 27.4137 48.0112 27.4248C48.0334 27.4801 48.0555 27.5244 48.0776 27.5576C48.0998 27.5908 48.1219 27.6296 48.144 27.6738ZM58.4702 38.0332C58.3595 38.1217 58.2267 38.1715 58.0718 38.1826C57.9279 38.1937 57.7951 38.2214 57.6733 38.2656C57.5959 38.2878 57.5073 38.321 57.4077 38.3652C57.3192 38.4206 57.2306 38.4704 57.1421 38.5146C56.9761 38.5811 56.8322 38.6917 56.7104 38.8467C56.644 38.8577 56.5887 38.8688 56.5444 38.8799C56.5112 38.902 56.4725 38.9076 56.4282 38.8965C56.3507 38.8301 56.3009 38.7858 56.2788 38.7637C56.2567 38.7526 56.2401 38.7415 56.229 38.7305C56.1183 38.5645 56.0243 38.4759 55.9468 38.4648C55.9136 38.3431 55.8638 38.238 55.7974 38.1494C55.7642 38.0941 55.7365 38.0443 55.7144 38C55.7033 37.9447 55.6701 37.9115 55.6147 37.9004C55.6258 37.8561 55.6258 37.8229 55.6147 37.8008C55.6037 37.7676 55.5871 37.7344 55.5649 37.7012C55.4653 37.5573 55.3436 37.4355 55.1997 37.3359C55.2218 37.2917 55.2218 37.2529 55.1997 37.2197C55.1776 37.1865 55.1554 37.1533 55.1333 37.1201C55.1001 37.0758 55.0614 37.0094 55.0171 36.9209C54.9507 36.8324 54.9009 36.7604 54.8677 36.7051C54.8455 36.6497 54.8068 36.611 54.7515 36.5889C54.7404 36.5557 54.7293 36.528 54.7183 36.5059C54.7072 36.4837 54.7127 36.4505 54.7349 36.4062C54.7127 36.373 54.6851 36.3564 54.6519 36.3564C54.6187 36.3454 54.591 36.3288 54.5688 36.3066C54.5246 36.1849 54.4416 36.0742 54.3198 35.9746C54.2977 35.9525 54.2756 35.9248 54.2534 35.8916C54.2313 35.8473 54.2091 35.8086 54.187 35.7754C54.1649 35.7533 54.1317 35.7256 54.0874 35.6924C54.0542 35.6592 54.0265 35.626 54.0044 35.5928C53.9823 35.5485 53.9657 35.5098 53.9546 35.4766C53.9546 35.4434 53.9435 35.4102 53.9214 35.377C53.866 35.2884 53.7941 35.2165 53.7056 35.1611C53.617 35.1058 53.5396 35.0339 53.4731 34.9453C53.4621 34.9342 53.4344 34.9066 53.3901 34.8623C53.3569 34.807 53.3293 34.7738 53.3071 34.7627C53.2629 34.7295 53.2186 34.6852 53.1743 34.6299C53.1411 34.5635 53.0968 34.5026 53.0415 34.4473C52.9972 34.3919 52.9696 34.3366 52.9585 34.2812C52.9364 34.2259 52.9032 34.1872 52.8589 34.165C52.8257 34.1318 52.798 34.082 52.7759 34.0156C52.5877 34.0046 52.4383 33.9271 52.3276 33.7832C52.217 33.6393 52.0897 33.5231 51.9458 33.4346C51.8683 33.3571 51.813 33.3073 51.7798 33.2852C51.7576 33.263 51.741 33.2409 51.73 33.2188C51.6746 33.2409 51.6525 33.2796 51.6636 33.335C51.6746 33.3792 51.6746 33.418 51.6636 33.4512C51.6636 33.5065 51.658 33.5563 51.647 33.6006C51.647 33.6449 51.6525 33.6947 51.6636 33.75C51.6746 33.8164 51.6912 33.8883 51.7134 33.9658C51.7355 34.0322 51.7521 34.1152 51.7632 34.2148C51.7743 34.3034 51.7743 34.3919 51.7632 34.4805C51.7521 34.5579 51.7466 34.641 51.7466 34.7295C51.7576 34.7959 51.7632 34.8568 51.7632 34.9121C51.7743 34.9674 51.7853 35.0228 51.7964 35.0781C51.7964 35.1224 51.7909 35.1667 51.7798 35.2109C51.7798 35.2441 51.7853 35.2884 51.7964 35.3438C51.7964 35.4434 51.8019 35.543 51.813 35.6426C51.8351 35.7422 51.8407 35.8363 51.8296 35.9248C51.8296 36.0465 51.8241 36.1572 51.813 36.2568C51.8019 36.3564 51.8019 36.4727 51.813 36.6055C51.8241 36.694 51.8407 36.7715 51.8628 36.8379C51.896 36.9043 51.9126 36.9762 51.9126 37.0537V37.2695C51.9015 37.347 51.8905 37.4245 51.8794 37.502C51.8794 37.5684 51.9126 37.6292 51.979 37.6846C51.9347 37.7731 51.9292 37.8451 51.9624 37.9004C52.0067 37.9557 52.0177 38.0332 51.9956 38.1328C51.9513 38.1549 51.9126 38.1826 51.8794 38.2158C51.8462 38.249 51.8019 38.2656 51.7466 38.2656C51.5806 38.2214 51.4478 38.1992 51.3481 38.1992C51.2596 38.1992 51.1877 38.1715 51.1323 38.1162C51.0881 38.1383 51.0493 38.1549 51.0161 38.166C50.9829 38.1882 50.9386 38.2048 50.8833 38.2158C50.7505 38.238 50.5955 38.238 50.4185 38.2158C50.2524 38.2048 50.103 38.2103 49.9702 38.2324C49.937 38.2435 49.8872 38.249 49.8208 38.249C49.7544 38.249 49.6935 38.2601 49.6382 38.2822C49.605 38.2158 49.5662 38.1549 49.522 38.0996C49.4888 38.0443 49.4611 37.9779 49.439 37.9004C49.439 37.8451 49.45 37.7731 49.4722 37.6846C49.4943 37.596 49.5054 37.513 49.5054 37.4355C49.4943 37.3359 49.4832 37.2474 49.4722 37.1699C49.4611 37.0924 49.4666 36.9928 49.4888 36.8711C49.4888 36.86 49.4888 36.8324 49.4888 36.7881C49.4888 36.7327 49.4888 36.6719 49.4888 36.6055C49.4998 36.5391 49.5054 36.4727 49.5054 36.4062C49.5164 36.3398 49.522 36.29 49.522 36.2568C49.533 36.1794 49.533 36.113 49.522 36.0576C49.5109 35.9912 49.522 35.9303 49.5552 35.875C49.533 35.8307 49.5275 35.7865 49.5386 35.7422C49.5496 35.6979 49.5496 35.6481 49.5386 35.5928C49.5275 35.471 49.5054 35.3271 49.4722 35.1611C49.45 34.9951 49.439 34.8457 49.439 34.7129C49.4279 34.6576 49.4113 34.6188 49.3892 34.5967C49.367 34.5745 49.3504 34.5413 49.3394 34.4971C49.3615 34.3421 49.3615 34.1816 49.3394 34.0156C49.3172 33.8496 49.3062 33.6891 49.3062 33.5342C49.3062 33.3903 49.3117 33.252 49.3228 33.1191C49.3338 32.9753 49.3338 32.8258 49.3228 32.6709C49.3117 32.6156 49.3006 32.5658 49.2896 32.5215C49.2785 32.4661 49.2729 32.4108 49.2729 32.3555C49.2729 32.3112 49.2729 32.2725 49.2729 32.2393C49.284 32.195 49.284 32.1507 49.2729 32.1064C49.2729 32.0622 49.2674 32.0234 49.2563 31.9902C49.2453 31.946 49.2342 31.9017 49.2231 31.8574C49.2231 31.8242 49.2287 31.791 49.2397 31.7578C49.2508 31.7135 49.2563 31.6748 49.2563 31.6416C49.2563 31.5309 49.2453 31.4258 49.2231 31.3262C49.201 31.2155 49.1899 31.0882 49.1899 30.9443C49.1899 30.9222 49.1955 30.8945 49.2065 30.8613C49.2176 30.8281 49.2231 30.7949 49.2231 30.7617C49.201 30.6178 49.1955 30.5072 49.2065 30.4297C49.2287 30.3411 49.2397 30.2581 49.2397 30.1807C49.2397 30.1253 49.2287 30.07 49.2065 30.0146C49.1844 29.9593 49.1789 29.8929 49.1899 29.8154C49.1567 29.7601 49.1567 29.6826 49.1899 29.583C49.2342 29.4834 49.2397 29.4004 49.2065 29.334C49.2397 29.1016 49.2563 28.9245 49.2563 28.8027C49.2674 28.6699 49.2729 28.515 49.2729 28.3379C49.2951 28.2383 49.2951 28.1719 49.2729 28.1387C49.2619 28.1055 49.2563 28.0723 49.2563 28.0391C49.2453 27.9505 49.2453 27.8675 49.2563 27.79C49.2785 27.7015 49.284 27.613 49.2729 27.5244C49.2619 27.4912 49.2508 27.458 49.2397 27.4248C49.2287 27.3916 49.2231 27.3584 49.2231 27.3252C49.2453 27.2367 49.2508 27.1758 49.2397 27.1426C49.2287 27.1094 49.2231 27.0817 49.2231 27.0596C49.2342 27.0042 49.2453 26.9544 49.2563 26.9102C49.2785 26.8659 49.2896 26.8161 49.2896 26.7607C49.2785 26.6943 49.2563 26.6445 49.2231 26.6113C49.201 26.5781 49.1789 26.5339 49.1567 26.4785C49.1789 26.4232 49.1844 26.3623 49.1733 26.2959C49.1733 26.2184 49.1789 26.152 49.1899 26.0967C49.2121 25.986 49.2508 25.8975 49.3062 25.8311C49.4168 25.8311 49.5275 25.8366 49.6382 25.8477C49.7599 25.8587 49.8872 25.8643 50.02 25.8643H50.186C50.2082 25.8643 50.2192 25.8587 50.2192 25.8477C50.3078 25.8698 50.3797 25.8809 50.4351 25.8809C50.4904 25.8698 50.5457 25.8587 50.6011 25.8477C50.6232 25.8477 50.6509 25.8532 50.6841 25.8643C50.7173 25.8753 50.7616 25.8753 50.8169 25.8643C50.9054 25.8421 50.9718 25.8366 51.0161 25.8477C51.0715 25.8587 51.1268 25.8643 51.1821 25.8643C51.2375 25.8753 51.2817 25.8753 51.3149 25.8643C51.3481 25.8532 51.3813 25.8587 51.4146 25.8809C51.5142 26.0137 51.564 26.0856 51.564 26.0967C51.5861 26.141 51.5806 26.1908 51.5474 26.2461C51.5252 26.2904 51.5142 26.3402 51.5142 26.3955C51.5031 26.484 51.5086 26.5726 51.5308 26.6611C51.5529 26.7386 51.5584 26.8216 51.5474 26.9102C51.5474 26.9766 51.5363 27.0374 51.5142 27.0928C51.5031 27.1481 51.4976 27.209 51.4976 27.2754C51.4865 27.375 51.4865 27.4912 51.4976 27.624C51.5086 27.7458 51.5031 27.873 51.481 28.0059C51.4699 28.0501 51.4588 28.0944 51.4478 28.1387C51.4367 28.1719 51.4256 28.2106 51.4146 28.2549C51.4035 28.2992 51.3979 28.3434 51.3979 28.3877C51.3979 28.4209 51.3924 28.4596 51.3813 28.5039C51.3703 28.5592 51.3481 28.609 51.3149 28.6533C51.2928 28.6976 51.2762 28.7474 51.2651 28.8027C51.2651 28.8913 51.2817 28.9743 51.3149 29.0518C51.3592 29.1292 51.3426 29.2122 51.2651 29.3008C51.2873 29.3783 51.2928 29.4391 51.2817 29.4834C51.2817 29.5166 51.2817 29.5387 51.2817 29.5498C51.2928 29.5941 51.3039 29.6273 51.3149 29.6494C51.326 29.6715 51.3426 29.7103 51.3647 29.7656C51.3537 29.8542 51.3426 29.9206 51.3315 29.9648C51.3205 30.0091 51.326 30.07 51.3481 30.1475C51.4478 30.1364 51.5142 30.0755 51.5474 29.9648C51.6027 29.9538 51.6359 29.9261 51.647 29.8818C51.6691 29.8376 51.6968 29.7988 51.73 29.7656C51.8185 29.7103 51.8683 29.6715 51.8794 29.6494C51.9015 29.6162 51.9237 29.5941 51.9458 29.583C52.0122 29.4945 52.062 29.4336 52.0952 29.4004C52.1395 29.3672 52.1727 29.3395 52.1948 29.3174C52.2502 29.262 52.2778 29.2178 52.2778 29.1846C52.2778 29.1514 52.2889 29.1292 52.311 29.1182C52.3664 29.0628 52.3996 29.0296 52.4106 29.0186C52.4328 29.0075 52.4494 28.9964 52.4604 28.9854C52.5711 28.8415 52.6929 28.7087 52.8257 28.5869C52.9585 28.4652 53.0858 28.349 53.2075 28.2383C53.2629 28.1829 53.2961 28.1497 53.3071 28.1387C53.3293 28.1276 53.3514 28.1165 53.3735 28.1055C53.4621 28.0169 53.5229 27.9561 53.5562 27.9229C53.6004 27.8786 53.6336 27.8343 53.6558 27.79C53.7111 27.79 53.7443 27.779 53.7554 27.7568C53.7664 27.7236 53.7996 27.7181 53.855 27.7402C53.8993 27.6517 53.9435 27.5798 53.9878 27.5244C54.0431 27.458 54.0985 27.3916 54.1538 27.3252C54.2424 27.2699 54.3032 27.2201 54.3364 27.1758C54.3696 27.1315 54.4084 27.0872 54.4526 27.043C54.508 26.9544 54.5412 26.8991 54.5522 26.877C54.5744 26.8438 54.5965 26.8161 54.6187 26.7939C54.6408 26.7607 54.6685 26.7331 54.7017 26.7109C54.7459 26.6777 54.7791 26.6335 54.8013 26.5781C54.8787 26.4896 54.9396 26.4232 54.9839 26.3789C55.0282 26.3346 55.0503 26.2793 55.0503 26.2129C55.0946 26.224 55.1444 26.2074 55.1997 26.1631C55.2661 26.1077 55.3325 26.0745 55.3989 26.0635C55.4432 26.0524 55.4985 26.0579 55.5649 26.0801C55.6313 26.0911 55.7088 26.0967 55.7974 26.0967C55.9523 26.1077 56.1128 26.1133 56.2788 26.1133C56.4559 26.1022 56.6385 26.1077 56.8267 26.1299C56.9152 26.1299 56.9761 26.1354 57.0093 26.1465C57.0535 26.1576 57.0868 26.1686 57.1089 26.1797C57.1642 26.2018 57.2251 26.2129 57.2915 26.2129C57.369 26.2129 57.4409 26.224 57.5073 26.2461C57.6291 26.2682 57.7121 26.2738 57.7563 26.2627C57.8006 26.2516 57.8338 26.2461 57.856 26.2461C57.9334 26.3014 57.9943 26.3512 58.0386 26.3955C58.0939 26.4287 58.1271 26.4619 58.1382 26.4951C58.1603 26.5726 58.1382 26.6445 58.0718 26.7109C58.0164 26.7773 57.9722 26.8382 57.939 26.8936C57.8836 26.9046 57.8394 26.9323 57.8062 26.9766C57.7729 27.0098 57.7397 27.0485 57.7065 27.0928C57.6623 27.1149 57.6235 27.1426 57.5903 27.1758C57.5571 27.209 57.5184 27.2422 57.4741 27.2754C57.3966 27.3307 57.3192 27.3916 57.2417 27.458C57.1642 27.5244 57.0757 27.5742 56.9761 27.6074C56.9429 27.6628 56.9041 27.7126 56.8599 27.7568C56.8156 27.8011 56.7713 27.8454 56.7271 27.8896C56.6828 27.9229 56.644 27.9616 56.6108 28.0059C56.5776 28.0501 56.5223 28.0778 56.4448 28.0889C56.4227 28.111 56.4061 28.1442 56.395 28.1885C56.384 28.2217 56.3729 28.2493 56.3618 28.2715C56.2843 28.3268 56.2124 28.3932 56.146 28.4707C56.0907 28.5371 56.0353 28.6035 55.98 28.6699C55.9136 28.7253 55.8472 28.7806 55.7808 28.8359C55.7144 28.8913 55.6535 28.9577 55.5981 29.0352C55.5096 29.0573 55.4487 29.1016 55.4155 29.168C55.3934 29.2344 55.3381 29.2786 55.2495 29.3008C55.2052 29.3672 55.1554 29.4281 55.1001 29.4834C55.0448 29.5277 54.9894 29.5719 54.9341 29.6162C54.8787 29.6715 54.8234 29.7214 54.7681 29.7656C54.7127 29.7988 54.6629 29.8542 54.6187 29.9316C54.5744 29.9206 54.5467 29.9316 54.5356 29.9648C54.5246 29.987 54.4914 29.9925 54.436 29.9814C54.4028 30.0146 54.3752 30.0534 54.353 30.0977C54.342 30.1419 54.3254 30.1807 54.3032 30.2139C54.2479 30.2249 54.2091 30.2471 54.187 30.2803C54.1649 30.3135 54.1427 30.3411 54.1206 30.3633C54.0431 30.4076 53.9878 30.4795 53.9546 30.5791C53.8107 30.6344 53.689 30.7174 53.5894 30.8281C53.4897 30.9277 53.3791 31.0329 53.2573 31.1436C53.2131 31.1878 53.1688 31.2266 53.1245 31.2598C53.0913 31.293 53.0692 31.3317 53.0581 31.376C53.0581 31.4424 53.1024 31.5199 53.1909 31.6084C53.2795 31.6859 53.3514 31.7523 53.4067 31.8076C53.4621 31.863 53.5174 31.9349 53.5728 32.0234C53.6281 32.1009 53.689 32.1729 53.7554 32.2393C53.7996 32.2835 53.8384 32.3278 53.8716 32.3721C53.9159 32.4053 53.9657 32.4329 54.021 32.4551C54.0321 32.5215 54.0597 32.5713 54.104 32.6045C54.1483 32.6377 54.187 32.682 54.2202 32.7373C54.2645 32.7926 54.3088 32.859 54.353 32.9365C54.3752 32.9808 54.4084 33.0251 54.4526 33.0693C54.4969 33.1025 54.5301 33.1468 54.5522 33.2021C54.6297 33.2686 54.7017 33.346 54.7681 33.4346C54.8345 33.512 54.8843 33.6061 54.9175 33.7168C54.9618 33.7279 54.995 33.75 55.0171 33.7832C55.0503 33.8053 55.0946 33.8275 55.1499 33.8496C55.1831 33.8717 55.2052 33.8883 55.2163 33.8994C55.2274 33.8994 55.2495 33.9271 55.2827 33.9824C55.3049 34.0156 55.3325 34.0544 55.3657 34.0986C55.41 34.1429 55.4432 34.1816 55.4653 34.2148C55.5096 34.3034 55.5483 34.3753 55.5815 34.4307C55.6258 34.4749 55.6535 34.5247 55.6646 34.5801C55.7088 34.6022 55.742 34.6188 55.7642 34.6299C55.7974 34.641 55.8306 34.6686 55.8638 34.7129C55.8859 34.7461 55.9191 34.7848 55.9634 34.8291C56.0187 34.8623 56.063 34.901 56.0962 34.9453C56.1183 34.9674 56.1294 35.0007 56.1294 35.0449C56.1405 35.0892 56.1737 35.1113 56.229 35.1113C56.2622 35.2331 56.3175 35.3271 56.395 35.3936C56.4725 35.46 56.5389 35.554 56.5942 35.6758C56.6274 35.6868 56.6551 35.7035 56.6772 35.7256C56.7104 35.7367 56.7437 35.7533 56.7769 35.7754C56.8543 35.8639 56.8986 35.9359 56.9097 35.9912C56.9318 36.0355 56.9539 36.0742 56.9761 36.1074C57.0203 36.1074 57.0535 36.1296 57.0757 36.1738C57.0978 36.207 57.12 36.2347 57.1421 36.2568C57.1753 36.3122 57.2251 36.362 57.2915 36.4062C57.3468 36.5169 57.4077 36.5944 57.4741 36.6387C57.5295 36.7161 57.5793 36.7881 57.6235 36.8545C57.6789 36.9098 57.7287 36.9707 57.7729 37.0371C57.8172 37.0924 57.856 37.1533 57.8892 37.2197C57.9224 37.2751 57.9666 37.3249 58.022 37.3691C58.0884 37.3913 58.1825 37.4134 58.3042 37.4355C58.2931 37.4909 58.3097 37.5241 58.354 37.5352C58.3983 37.5352 58.4315 37.5462 58.4536 37.5684C58.52 37.6348 58.5477 37.7012 58.5366 37.7676C58.5366 37.834 58.5145 37.9225 58.4702 38.0332ZM67.2856 25.8477C67.175 25.9583 67.1141 26.0303 67.103 26.0635C67.0034 26.1852 66.9481 26.2516 66.937 26.2627C66.8817 26.3844 66.8319 26.4674 66.7876 26.5117C66.7433 26.5449 66.7101 26.5726 66.688 26.5947C66.6326 26.7165 66.5828 26.8105 66.5386 26.877C66.4943 26.9434 66.4556 27.0042 66.4224 27.0596C66.3781 27.1481 66.3394 27.1979 66.3062 27.209C66.284 27.209 66.2674 27.2201 66.2563 27.2422C66.2231 27.2865 66.201 27.3252 66.1899 27.3584C66.1789 27.3916 66.1623 27.4359 66.1401 27.4912C66.0184 27.6019 65.8966 27.7236 65.7749 27.8564C65.6642 27.9893 65.5425 28.1055 65.4097 28.2051C65.4207 28.3268 65.3931 28.4209 65.3267 28.4873C65.2603 28.5426 65.2049 28.6035 65.1606 28.6699C65.1164 28.7253 65.0832 28.7917 65.061 28.8691C65.05 28.9355 65.0112 28.9854 64.9448 29.0186C64.8674 29.1956 64.8065 29.2897 64.7622 29.3008C64.7733 29.3451 64.7622 29.3783 64.729 29.4004C64.6958 29.4115 64.6681 29.4336 64.646 29.4668C64.6239 29.5553 64.6017 29.6051 64.5796 29.6162C64.5685 29.6273 64.563 29.6383 64.563 29.6494C64.5409 29.7158 64.5187 29.7656 64.4966 29.7988C64.4855 29.821 64.4689 29.8486 64.4468 29.8818C64.3914 29.9593 64.3361 30.0534 64.2808 30.1641C64.2254 30.2747 64.1646 30.3743 64.0981 30.4629C64.0207 30.5514 63.9709 30.6123 63.9487 30.6455C63.9266 30.6676 63.9045 30.6898 63.8823 30.7119C63.8381 30.7673 63.7938 30.8226 63.7495 30.8779C63.7163 30.9222 63.6554 30.9554 63.5669 30.9775C63.5448 31.0661 63.5005 31.138 63.4341 31.1934C63.3787 31.2487 63.3289 31.3206 63.2847 31.4092C63.2625 31.4313 63.2515 31.4701 63.2515 31.5254C63.2515 31.5697 63.2349 31.6029 63.2017 31.625C63.1795 31.7246 63.1795 31.8298 63.2017 31.9404C63.2238 32.04 63.2349 32.1341 63.2349 32.2227C63.2349 32.2669 63.2293 32.3001 63.2183 32.3223C63.2072 32.3444 63.2017 32.3776 63.2017 32.4219C63.2127 32.4661 63.2238 32.516 63.2349 32.5713C63.2459 32.6156 63.2515 32.6654 63.2515 32.7207C63.2515 32.776 63.2459 32.8203 63.2349 32.8535C63.2349 32.8757 63.2293 32.9144 63.2183 32.9697C63.1961 33.2132 63.1851 33.4733 63.1851 33.75C63.1961 34.0156 63.2072 34.2591 63.2183 34.4805C63.2183 34.5469 63.2127 34.6188 63.2017 34.6963C63.2017 34.7627 63.2017 34.8346 63.2017 34.9121C63.2127 34.9674 63.2183 35.0117 63.2183 35.0449C63.2293 35.0781 63.2349 35.1169 63.2349 35.1611C63.2238 35.2054 63.2127 35.2441 63.2017 35.2773C63.1906 35.3105 63.1795 35.3493 63.1685 35.3936C63.1574 35.471 63.1574 35.5485 63.1685 35.626C63.1795 35.6924 63.1851 35.7588 63.1851 35.8252V36.0078C63.1961 36.1738 63.1961 36.3398 63.1851 36.5059C63.174 36.6608 63.1685 36.8434 63.1685 37.0537C63.1685 37.098 63.1685 37.1478 63.1685 37.2031C63.1795 37.2474 63.1685 37.2861 63.1353 37.3193C63.1685 37.5075 63.1795 37.6956 63.1685 37.8838C63.1906 37.9391 63.2293 38.0111 63.2847 38.0996C63.3511 38.1882 63.3732 38.2878 63.3511 38.3984C63.34 38.4427 63.3234 38.4759 63.3013 38.498C63.2791 38.5312 63.257 38.5645 63.2349 38.5977C63.1795 38.5977 63.1242 38.6032 63.0688 38.6143C63.0246 38.6364 62.9748 38.6419 62.9194 38.6309C62.7977 38.6309 62.6815 38.6419 62.5708 38.6641C62.4601 38.6973 62.3494 38.7194 62.2388 38.7305C62.0949 38.7415 61.9399 38.736 61.7739 38.7139C61.6079 38.6917 61.4419 38.6751 61.2759 38.6641C61.1541 38.653 61.0324 38.6475 60.9106 38.6475C60.7889 38.6585 60.6948 38.6198 60.6284 38.5312C60.5952 38.487 60.5897 38.4206 60.6118 38.332C60.634 38.2214 60.6506 38.1383 60.6616 38.083C60.6727 38.0277 60.6893 37.9779 60.7114 37.9336C60.6893 37.834 60.6727 37.7399 60.6616 37.6514C60.6506 37.5518 60.6561 37.4411 60.6782 37.3193C60.7004 37.2308 60.7059 37.1589 60.6948 37.1035C60.6948 37.0482 60.7004 36.9818 60.7114 36.9043C60.7336 36.8379 60.7446 36.777 60.7446 36.7217C60.7446 36.6663 60.7336 36.6055 60.7114 36.5391C60.6893 36.4616 60.6782 36.3786 60.6782 36.29C60.6782 36.2126 60.6838 36.1406 60.6948 36.0742C60.717 36.0078 60.7336 35.9414 60.7446 35.875C60.7446 35.7533 60.728 35.637 60.6948 35.5264C60.6727 35.4046 60.6893 35.2939 60.7446 35.1943C60.7336 35.1501 60.717 35.1113 60.6948 35.0781C60.6838 35.0449 60.6782 35.0117 60.6782 34.9785C60.6672 34.9232 60.6672 34.8734 60.6782 34.8291C60.6893 34.7738 60.7004 34.7184 60.7114 34.6631C60.7114 34.652 60.7059 34.6243 60.6948 34.5801C60.6948 34.5247 60.7004 34.4694 60.7114 34.4141C60.7225 34.3587 60.7391 34.3145 60.7612 34.2812C60.7834 34.237 60.7944 34.1872 60.7944 34.1318C60.8055 34.0433 60.8055 33.9492 60.7944 33.8496C60.7834 33.75 60.7834 33.6559 60.7944 33.5674C60.7944 33.5231 60.8055 33.4733 60.8276 33.418C60.8498 33.3626 60.8608 33.3128 60.8608 33.2686C60.8608 33.2243 60.8498 33.1855 60.8276 33.1523C60.8055 33.1191 60.7944 33.0859 60.7944 33.0527C60.7944 32.9642 60.8055 32.8757 60.8276 32.7871C60.8498 32.6986 60.8664 32.6377 60.8774 32.6045C60.8996 32.5713 60.8996 32.5104 60.8774 32.4219C60.8664 32.3665 60.8553 32.3223 60.8442 32.2891C60.8442 32.2448 60.8276 32.2005 60.7944 32.1562C60.728 32.0345 60.6616 31.946 60.5952 31.8906C60.5399 31.8242 60.4901 31.7578 60.4458 31.6914C60.3905 31.5697 60.3462 31.4701 60.313 31.3926C60.2798 31.3151 60.2576 31.2321 60.2466 31.1436C60.1912 31.0993 60.147 31.0495 60.1138 30.9941C60.0806 30.9388 60.0418 30.8779 59.9976 30.8115C59.9865 30.7894 59.9699 30.7617 59.9478 30.7285C59.9256 30.6953 59.909 30.651 59.8979 30.5957C59.8315 30.4408 59.7596 30.3301 59.6821 30.2637C59.6157 30.1973 59.5659 30.1309 59.5327 30.0645C59.5106 30.0202 59.494 29.9704 59.4829 29.915C59.4718 29.8597 59.4497 29.8044 59.4165 29.749C59.3944 29.6937 59.3556 29.6273 59.3003 29.5498C59.256 29.4723 59.2339 29.3949 59.2339 29.3174C59.1453 29.251 59.0679 29.179 59.0015 29.1016C58.9351 29.013 58.8908 28.9079 58.8687 28.7861C58.7358 28.6644 58.6362 28.5205 58.5698 28.3545C58.5034 28.1774 58.3983 28.0335 58.2544 27.9229C58.2544 27.8675 58.2433 27.8232 58.2212 27.79C58.1991 27.7568 58.188 27.7126 58.188 27.6572C58.1437 27.5908 58.0939 27.5355 58.0386 27.4912C57.9722 27.4469 57.9113 27.3971 57.856 27.3418C57.8228 27.2533 57.8006 27.2035 57.7896 27.1924C57.7785 27.1813 57.7674 27.1647 57.7563 27.1426C57.7121 27.0762 57.6733 27.0264 57.6401 26.9932C57.6069 26.96 57.5737 26.9212 57.5405 26.877C57.4852 26.8105 57.4354 26.7441 57.3911 26.6777C57.3468 26.6003 57.2804 26.5394 57.1919 26.4951C57.1808 26.4176 57.1476 26.3457 57.0923 26.2793C57.0259 26.2018 56.9982 26.1188 57.0093 26.0303C57.0203 25.9085 57.0923 25.8034 57.2251 25.7148C57.2362 25.6484 57.2472 25.5931 57.2583 25.5488C57.2694 25.5046 57.297 25.4714 57.3413 25.4492C57.3745 25.416 57.4243 25.3994 57.4907 25.3994C57.5461 25.3994 57.6014 25.4105 57.6567 25.4326C57.7342 25.3883 57.8283 25.3662 57.939 25.3662C58.0386 25.3551 58.1271 25.3275 58.2046 25.2832C58.2489 25.2832 58.2931 25.2832 58.3374 25.2832C58.3706 25.2832 58.3983 25.2943 58.4204 25.3164C58.4647 25.3164 58.4979 25.3053 58.52 25.2832C58.5532 25.25 58.592 25.2279 58.6362 25.2168C58.758 25.2168 58.8354 25.2113 58.8687 25.2002C58.9019 25.1781 58.9295 25.167 58.9517 25.167C58.9849 25.167 59.0236 25.1725 59.0679 25.1836C59.1121 25.1947 59.1453 25.2057 59.1675 25.2168C59.2118 25.2389 59.2505 25.2832 59.2837 25.3496C59.3169 25.416 59.3446 25.4714 59.3667 25.5156C59.422 25.582 59.4663 25.6374 59.4995 25.6816C59.5327 25.7259 59.5549 25.7757 59.5659 25.8311C59.6323 25.8532 59.6766 25.8919 59.6987 25.9473C59.7209 26.0026 59.7541 26.0579 59.7983 26.1133C59.8426 26.1576 59.8869 26.2018 59.9312 26.2461C59.9754 26.2793 60.0142 26.3236 60.0474 26.3789C60.0695 26.4121 60.0861 26.4508 60.0972 26.4951C60.1193 26.5283 60.1414 26.5615 60.1636 26.5947C60.2189 26.6501 60.2466 26.6888 60.2466 26.7109C60.2466 26.7331 60.2521 26.7552 60.2632 26.7773C60.3075 26.8438 60.3517 26.9046 60.396 26.96C60.4403 27.0153 60.4735 27.0872 60.4956 27.1758C60.5177 27.2201 60.5454 27.2588 60.5786 27.292C60.6229 27.3141 60.6561 27.3473 60.6782 27.3916C60.7004 27.4469 60.717 27.5078 60.728 27.5742C60.7391 27.6296 60.7557 27.6849 60.7778 27.7402C60.8332 27.8066 60.8608 27.8509 60.8608 27.873C60.8719 27.8952 60.883 27.9118 60.894 27.9229C60.9494 27.9782 60.9826 28.028 60.9937 28.0723C61.0158 28.1165 61.0379 28.1608 61.0601 28.2051C61.0822 28.2493 61.0988 28.2881 61.1099 28.3213C61.132 28.3545 61.1541 28.3988 61.1763 28.4541C61.1984 28.4984 61.215 28.5426 61.2261 28.5869C61.2371 28.6201 61.2537 28.6589 61.2759 28.7031C61.298 28.7474 61.3257 28.7861 61.3589 28.8193C61.3921 28.8415 61.4198 28.8747 61.4419 28.9189C61.5083 29.0186 61.5747 29.1292 61.6411 29.251C61.7075 29.3727 61.785 29.4779 61.8735 29.5664C61.8957 29.5221 61.951 29.4668 62.0396 29.4004C61.9953 29.3783 61.9953 29.3506 62.0396 29.3174C62.0838 29.2842 62.1004 29.2399 62.0894 29.1846C62.1668 29.1182 62.2111 29.0739 62.2222 29.0518C62.2332 29.0186 62.2443 28.9909 62.2554 28.9688C62.2996 28.9134 62.3384 28.8691 62.3716 28.8359C62.4159 28.8027 62.4546 28.7585 62.4878 28.7031C62.5099 28.681 62.5265 28.6533 62.5376 28.6201C62.5597 28.5869 62.5819 28.5592 62.604 28.5371C62.6483 28.4818 62.687 28.4375 62.7202 28.4043C62.7645 28.36 62.8088 28.3047 62.853 28.2383C62.9084 28.1497 62.9526 28.0889 62.9858 28.0557C63.019 28.0114 63.0356 27.9671 63.0356 27.9229C63.0799 27.9007 63.1131 27.8786 63.1353 27.8564C63.1574 27.8232 63.1795 27.79 63.2017 27.7568C63.257 27.7015 63.2847 27.6628 63.2847 27.6406C63.2847 27.6074 63.2957 27.5798 63.3179 27.5576C63.3843 27.4691 63.4175 27.4137 63.4175 27.3916C63.4285 27.3695 63.4396 27.3473 63.4507 27.3252C63.495 27.2699 63.5226 27.2367 63.5337 27.2256C63.5448 27.2035 63.5614 27.1813 63.5835 27.1592C63.672 27.0817 63.7218 27.0319 63.7329 27.0098C63.755 26.9876 63.7772 26.9655 63.7993 26.9434C63.8436 26.888 63.8989 26.8216 63.9653 26.7441C64.0317 26.6667 64.1037 26.6113 64.1812 26.5781C64.1922 26.5228 64.2033 26.484 64.2144 26.4619C64.2254 26.4287 64.242 26.3844 64.2642 26.3291C64.3195 26.2516 64.3582 26.1963 64.3804 26.1631C64.4025 26.1299 64.4246 26.1022 64.4468 26.0801C64.4689 26.0579 64.4855 26.0358 64.4966 26.0137C64.5187 25.9805 64.5409 25.9473 64.563 25.9141C64.5962 25.8255 64.6183 25.7259 64.6294 25.6152C64.6515 25.5046 64.7124 25.4326 64.812 25.3994C64.8674 25.3773 64.9448 25.3773 65.0444 25.3994C65.1551 25.4215 65.2713 25.4271 65.3931 25.416C65.4816 25.4049 65.5701 25.3939 65.6587 25.3828C65.7472 25.3717 65.8579 25.3662 65.9907 25.3662C66.0461 25.3773 66.0959 25.3883 66.1401 25.3994C66.1844 25.3994 66.2342 25.3994 66.2896 25.3994C66.4445 25.3994 66.5773 25.3883 66.688 25.3662C66.8097 25.3441 66.8983 25.333 66.9536 25.333C67.1086 25.3551 67.2192 25.416 67.2856 25.5156C67.3631 25.6042 67.3631 25.7148 67.2856 25.8477Z" fill="#42A5F5"/>
</svg>
